<?xml version="1.0" encoding="UTF-8" standalone="no"?>
<!-- Created with Inkscape (http://www.inkscape.org/) -->

<svg
   xmlns:dc="http://purl.org/dc/elements/1.1/"
   xmlns:cc="http://creativecommons.org/ns#"
   xmlns:rdf="http://www.w3.org/1999/02/22-rdf-syntax-ns#"
   xmlns:svg="http://www.w3.org/2000/svg"
   xmlns="http://www.w3.org/2000/svg"
   xmlns:xlink="http://www.w3.org/1999/xlink"
   xmlns:sodipodi="http://sodipodi.sourceforge.net/DTD/sodipodi-0.dtd"
   xmlns:inkscape="http://www.inkscape.org/namespaces/inkscape"
   width="591.88806"
   height="162.5"
   id="svg2"
   version="1.1"
   inkscape:version="0.48.5 r10040"
   sodipodi:docname="logo.svg">
  <defs
     id="defs4">
    <linearGradient
       id="linearGradient3833">
      <stop
         style="stop-color:#39ad00;stop-opacity:1;"
         offset="0"
         id="stop3835" />
      <stop
         id="stop3837"
         offset="0.5"
         style="stop-color:#009b4f;stop-opacity:1;" />
      <stop
         id="stop3839"
         offset="1"
         style="stop-color:#009eef;stop-opacity:1;" />
    </linearGradient>
    <linearGradient
       id="linearGradient3777">
      <stop
         id="stop3809"
         offset="0"
         style="stop-color:#59ff07;stop-opacity:1;" />
      <stop
         style="stop-color:#14ff8b;stop-opacity:1;"
         offset="0.5"
         id="stop3817" />
      <stop
         style="stop-color:#7ed3ff;stop-opacity:1;"
         offset="1"
         id="stop3781" />
    </linearGradient>
    <linearGradient
       inkscape:collect="always"
       xlink:href="#linearGradient3777"
       id="linearGradient3815"
       x1="60.740429"
       y1="449.8125"
       x2="642.9953"
       y2="449.8125"
       gradientUnits="userSpaceOnUse" />
    <linearGradient
       inkscape:collect="always"
       xlink:href="#linearGradient3833"
       id="linearGradient3831"
       x1="55.924629"
       y1="449.8125"
       x2="647.81268"
       y2="449.8125"
       gradientUnits="userSpaceOnUse" />
    <linearGradient
       inkscape:collect="always"
       xlink:href="#linearGradient3777"
       id="linearGradient3847"
       gradientUnits="userSpaceOnUse"
       x1="60.740429"
       y1="449.8125"
       x2="642.9953"
       y2="449.8125" />
    <linearGradient
       inkscape:collect="always"
       xlink:href="#linearGradient3833"
       id="linearGradient3850"
       gradientUnits="userSpaceOnUse"
       x1="55.924629"
       y1="449.8125"
       x2="647.81268"
       y2="449.8125" />
    <linearGradient
       inkscape:collect="always"
       xlink:href="#linearGradient3777"
       id="linearGradient3853"
       gradientUnits="userSpaceOnUse"
       x1="60.740429"
       y1="449.8125"
       x2="642.9953"
       y2="449.8125" />
    <filter
       inkscape:collect="always"
       id="filter4405"
       x="-0.3945829"
       width="1.7891659"
       y="-3.2456748"
       height="7.4913497"
       color-interpolation-filters="sRGB">
      <feGaussianBlur
         inkscape:collect="always"
         stdDeviation="5.397558"
         id="feGaussianBlur4407" />
    </filter>
    <filter
       inkscape:collect="always"
       id="filter4409"
       x="-0.41367558"
       width="1.8273512"
       y="-2.5627034"
       height="6.1254067"
       color-interpolation-filters="sRGB">
      <feGaussianBlur
         inkscape:collect="always"
         stdDeviation="5.397558"
         id="feGaussianBlur4411" />
    </filter>
    <filter
       inkscape:collect="always"
       id="filter4413"
       x="-2.1373222"
       width="5.2746444"
       y="-3.2561841"
       height="7.5123682"
       color-interpolation-filters="sRGB">
      <feGaussianBlur
         inkscape:collect="always"
         stdDeviation="5.397558"
         id="feGaussianBlur4415" />
    </filter>
    <filter
       inkscape:collect="always"
       id="filter4417"
       x="-0.3309404"
       width="1.6618809"
       y="-1.5897079"
       height="4.1794157"
       color-interpolation-filters="sRGB">
      <feGaussianBlur
         inkscape:collect="always"
         stdDeviation="5.397558"
         id="feGaussianBlur4419" />
    </filter>
    <filter
       inkscape:collect="always"
       id="filter4421"
       x="-2.2302499"
       width="5.4604998"
       y="-5.5724401"
       height="12.144881"
       color-interpolation-filters="sRGB">
      <feGaussianBlur
         inkscape:collect="always"
         stdDeviation="5.397558"
         id="feGaussianBlur4423" />
    </filter>
    <filter
       inkscape:collect="always"
       id="filter4425"
       x="-0.29650736"
       width="1.5930147"
       y="-1.0779246"
       height="3.1558492"
       color-interpolation-filters="sRGB">
      <feGaussianBlur
         inkscape:collect="always"
         stdDeviation="5.397558"
         id="feGaussianBlur4427" />
    </filter>
    <filter
       inkscape:collect="always"
       id="filter4429"
       x="-2.2302499"
       width="5.4604998"
       y="-6.5936961"
       height="14.187392"
       color-interpolation-filters="sRGB">
      <feGaussianBlur
         inkscape:collect="always"
         stdDeviation="5.397558"
         id="feGaussianBlur4431" />
    </filter>
    <filter
       inkscape:collect="always"
       id="filter4433"
       x="-0.58290666"
       width="2.1658134"
       y="-2.1426542"
       height="5.2853084"
       color-interpolation-filters="sRGB">
      <feGaussianBlur
         inkscape:collect="always"
         stdDeviation="5.397558"
         id="feGaussianBlur4435" />
    </filter>
    <filter
       inkscape:collect="always"
       id="filter4437"
       x="-2.0518322"
       width="5.1036639"
       y="-2.9583986"
       height="6.9167972"
       color-interpolation-filters="sRGB">
      <feGaussianBlur
         inkscape:collect="always"
         stdDeviation="5.397558"
         id="feGaussianBlur4439" />
    </filter>
    <filter
       inkscape:collect="always"
       id="filter4441"
       x="-1.8319941"
       width="4.6639881"
       y="-5.1198549"
       height="11.23971"
       color-interpolation-filters="sRGB">
      <feGaussianBlur
         inkscape:collect="always"
         stdDeviation="5.397558"
         id="feGaussianBlur4443" />
    </filter>
    <filter
       inkscape:collect="always"
       id="filter4445"
       x="-0.29145327"
       width="1.5829066"
       y="-1.0958033"
       height="3.1916065"
       color-interpolation-filters="sRGB">
      <feGaussianBlur
         inkscape:collect="always"
         stdDeviation="5.397558"
         id="feGaussianBlur4447" />
    </filter>
    <clipPath
       clipPathUnits="userSpaceOnUse"
       id="clipPath4454">
      <path
         style="font-size:142.21144104px;font-style:normal;font-variant:normal;font-weight:normal;font-stretch:normal;line-height:125%;letter-spacing:0px;word-spacing:0px;fill:#ff0101;fill-opacity:0.32941176;stroke:none;font-family:Comic Sans MS;-inkscape-font-specification:Comic Sans MS"
         d="m 102.3125,372.5625 c -4.043202,1.1e-4 -7.46767,0.16778 -10.3125,0.40625 -2.715813,0.22785 -4.835758,0.55656 -6.625,1.0625 -1.962431,-0.14693 -3.918786,0.22578 -5.5,1.34375 -1.802222,1.27423 -3.063002,3.18331 -3.96875,5.53125 -0.9698,2.47997 -1.666493,5.93416 -2.25,10.625 l -1.1875,9.53125 0,0.0312 c -0.799457,5.68911 -2.479045,15.21811 -5.0625,28.5625 -2.376187,12.38817 -4.015158,22.02525 -4.875,28.9375 L 60,479.03125 c -0.297913,2.39484 0.285632,4.80345 1.78125,6.625 1.520003,1.85128 3.903793,2.87499 6.34375,2.875 2.40873,-10e-6 4.721339,-0.96249 6.5,-2.625 1.756882,-1.6422 2.918417,-3.83584 3.21875,-6.25 2.031593,-16.33196 3.549719,-27.13075 4.75,-34.21875 2.409839,0.30869 4.955734,0.65629 6.15625,0.65625 11.40462,4e-5 21.72593,-3.24193 30.6875,-9.65625 10.05921,-7.16822 16.02375,-17.10073 17.53125,-29.21875 1.21173,-9.74165 -2.36351,-18.48743 -10.21875,-25.3125 -7.09512,-6.13957 -15.37693,-9.34363 -24.4375,-9.34375 z m -3.21875,18.40625 c 5.4321,8e-5 10.1098,1.5018 14.40625,4.625 3.57073,3.08898 6.0504,7.28011 5.65625,11.00005 -0.82599,6.63966 -3.95779,11.66709 -9.8125,15.625 -5.36482,3.63144 -11.579218,5.43222 -18.90625,5.4375 l -0.03125,0 -4.53125,-0.5625 4.4375,-24.96875 c 0.01101,-0.031 0.02143,-0.0623 0.03125,-0.0937 L 91.78125,391.25 c 0.661794,-0.0654 1.196767,-0.14121 2,-0.1875 1.531495,-0.0881 3.30288,-0.0937 5.3125,-0.0937 z m 388.125,17.5 c -9.89246,6e-5 -19.40633,3.60544 -28.4375,10.1875 -0.12924,-1.66723 -0.46382,-3.16347 -1.09375,-4.5 -1.25987,-2.67305 -4.09612,-4.37495 -7.09375,-4.375 -2.53426,5e-5 -4.9279,0.82646 -6.625,2.53125 -1.6971,1.70479 -2.60082,4.07467 -2.9375,6.78125 -0.1818,1.46139 -0.53779,3.74035 -1.03125,6.78125 -0.50094,3.08671 -0.80601,5.40921 -1,6.96875 l -6.09375,48.75 c -0.33659,2.70579 -0.0796,5.1895 1.375,7.125 1.45464,1.9355 3.90983,2.78125 6.4375,2.78125 2.72774,0 5.23734,-0.76267 7.09375,-2.4375 1.85641,-1.67483 2.87658,-4.09316 3.21875,-6.84375 l 4.53125,-37.4375 c 3.27876,-5.59965 6.91281,-9.70132 10.90625,-12.375 6e-5,-0.0104 6e-5,-0.0208 0,-0.0312 3.69465,-2.49377 8.39757,-4.2141 14.03125,-5.21875 l -0.21875,2.46875 c -5.7e-4,0.0312 -5.7e-4,0.0625 0,0.0937 -0.1547,2.35841 -0.28762,4.01599 -0.375,4.71875 -0.32998,2.65242 -0.10725,5.07939 1.3125,7 1.41975,1.92061 3.85795,2.78127 6.34375,2.78125 2.73217,3e-5 5.31796,-1.07662 7.125,-3.03125 1.80704,-1.95463 2.86036,-4.58209 3.4375,-7.78125 0.16762,-0.93204 0.41587,-2.56573 0.71875,-5 0.74222,-5.96724 0.4484,-10.70413 -1.46875,-14.3125 -1.91671,-3.60703 -5.75233,-5.62492 -10.15625,-5.625 z M 404.5,409.15625 c -11.33817,7e-5 -21.75864,4.33978 -30.84375,12.65625 -9.09102,8.32197 -14.5029,18.55988 -15.96875,30.34375 -1.51576,12.18508 -0.32738,21.61412 4.1875,28.15625 4.77965,6.96531 13.34005,10.28125 24.65625,10.28125 2.73623,0 5.84084,-0.71822 9.53125,-2 3.12,-1.08368 6.86836,-2.79683 10.8125,-4.71875 0.86919,1.21072 1.63923,2.38471 2.9375,3.71875 0.0103,0.0105 0.0207,0.0209 0.0312,0.0312 1.09869,1.08572 2.06025,1.9151 3,2.5625 0.93975,0.6474 1.80729,1.25 3.25,1.25 2.32433,0 4.55653,-0.92383 6.375,-2.4375 1.87548,-1.56126 3.13169,-3.76109 3.4375,-6.21875 0.0328,-0.30261 0.0116,-0.61101 -0.0625,-0.90625 l -0.28125,-1.1875 c -0.0176,-0.0738 -0.0384,-0.14676 -0.0625,-0.2187 -0.52557,-1.57925 -0.86152,-2.7711 -1.0625,-3.53125 6e-5,-0.0104 6e-5,-0.0208 0,-0.0312 -1.68255,-6.07127 -2.65033,-10.20438 -2.8125,-11.78125 2.5e-4,-0.0208 2.5e-4,-0.0417 0,-0.0625 -0.3705,-2.9492 -0.21314,-7.34909 0.53125,-12.96875 0.82546,-6.26593 1.60142,-11.3874 2.34375,-15.34375 0.72828,-3.88218 1.44703,-6.60023 2,-8.0625 1.0208,-1.20388 1.78049,-2.61227 1.96875,-4.125 0.31663,-2.54572 -0.59358,-5.10151 -2.34375,-7.09375 -1.75017,-1.99224 -4.23524,-3.57893 -7.4375,-4.96875 -4.98739,-2.19157 -9.71511,-3.34367 -14.1875,-3.34375 z m 215.25,0 c -11.33816,7e-5 -21.75865,4.33978 -30.84375,12.65625 -9.0933,8.32405 -14.47224,18.56457 -15.9375,30.34375 -1.51522,12.18065 -0.36222,21.6089 4.15625,28.15625 4.77966,6.9653 13.34006,10.28125 24.65625,10.28125 2.73623,0 5.86764,-0.71668 9.5625,-2 3.13022,-1.08723 6.86782,-2.79222 10.8125,-4.71875 0.87941,1.20989 1.64948,2.39526 2.9375,3.71875 0.0103,0.0105 0.0207,0.0209 0.0312,0.0312 1.09405,1.08114 2.03816,1.91458 2.96875,2.5625 0.93059,0.64792 1.80729,1.25 3.25,1.25 2.32433,0 4.57373,-0.91215 6.40625,-2.4375 1.88954,-1.57296 3.10397,-3.78946 3.40625,-6.21875 0.0328,-0.30261 0.0116,-0.61101 -0.0625,-0.90625 l -0.28125,-1.1875 c -0.0176,-0.0738 -0.0385,-0.1468 -0.0625,-0.21875 -0.52556,-1.57927 -0.86152,-2.77112 -1.0625,-3.53125 6e-5,-0.0104 6e-5,-0.0208 0,-0.0312 -1.68036,-6.0634 -2.6164,-10.17838 -2.78125,-11.78125 2.5e-4,-0.0208 2.5e-4,-0.0417 0,-0.0625 -0.37248,-2.96502 -0.24327,-7.35827 0.5,-12.96875 0.82546,-6.26593 1.60143,-11.38739 2.34375,-15.34375 0.72563,-3.86801 1.44788,-6.56457 2,-8.03125 1.02698,-1.19169 1.8068,-2.60372 2,-4.15625 0.31753,-2.55291 -0.58616,-5.10439 -2.34375,-7.09375 -1.75759,-1.98936 -4.26799,-3.57958 -7.46875,-4.96875 -4.98739,-2.19157 -9.7151,-3.34367 -14.1875,-3.34375 z m -343,0.28125 c -3.34614,10e-5 -6.33053,2.0032 -8.4375,5.03125 -4.22698,6.0555 -8.70548,13.22518 -13.46875,21.5625 -6e-5,0.0104 -6e-5,0.0208 0,0.0312 l -10.46875,18.9063 c -5.92091,-17.54043 -11.84237,-31.53334 -17.875,-41.65625 -1.37907,-2.33769 -4.05413,-3.71866 -6.84375,-3.71875 -2.49254,10e-5 -4.85776,1.07129 -6.84375,2.8125 -2.01339,1.76539 -3.37072,4.07842 -3.6875,6.625 -0.27084,2.17729 0.33772,4.37249 1.4375,6.75 0.0101,0.021 0.0205,0.0418 0.0312,0.0625 l 2.4063,4.84375 0.0937,0.21875 18.375,46.5 c -6.01483,10.49011 -10.79577,19.21129 -14.03125,25.71875 -3.37292,6.78389 -5.2867,11.15288 -5.6875,14.375 -0.31094,2.49937 0.44907,5.07777 2.21875,6.875 1.73066,1.75752 4.15173,2.68745 6.65625,2.6875 3.93058,-5e-5 7.29841,-2.57786 9.1875,-6.46875 0.0105,-0.0103 0.0209,-0.0207 0.0312,-0.0312 l 6.21875,-13.40625 c 0.005,-0.011 0.0258,-0.0202 0.0312,-0.0312 l 0,-0.0312 c 4.16076,-8.41791 9.97809,-18.95769 17.4375,-31.53125 L 284,423.625 c 0.87565,-1.48757 1.49697,-2.93799 1.6875,-4.46875 0.31272,-2.51463 -0.53172,-5.05581 -2.28125,-6.875 -1.72019,-1.78829 -4.13408,-2.84366 -6.65625,-2.84375 z m 289.96875,0 c -3.34614,10e-5 -6.33053,2.0032 -8.4375,5.03125 -4.22698,6.0555 -8.70548,13.22518 -13.46875,21.5625 -6e-5,0.0104 -6e-5,0.0208 0,0.0312 l -10.4375,18.875 c -5.92337,-17.52876 -11.87854,-31.51035 -17.90625,-41.625 -1.37908,-2.3377 -4.05413,-3.71866 -6.84375,-3.71875 -2.49254,10e-5 -4.85776,1.07129 -6.84375,2.8125 -2.01337,1.76539 -3.37072,4.07842 -3.6875,6.625 -0.27084,2.17729 0.33772,4.37249 1.4375,6.75 0.0101,0.021 0.0205,0.0418 0.0312,0.0625 l 2.40625,4.84375 0.0937,0.21875 18.375,46.5 c -6.01483,10.49011 -10.79578,19.21129 -14.03125,25.71875 -3.37291,6.78389 -5.28669,11.15289 -5.6875,14.375 -0.31436,2.52702 0.49534,5.09303 2.25,6.875 1.71561,1.74224 4.12047,2.68745 6.625,2.6875 3.93058,-5e-5 7.2984,-2.57786 9.1875,-6.46875 0.0105,-0.0103 0.0209,-0.0207 0.0312,-0.0312 l 6.21875,-13.40625 c 0.005,-0.011 0.0258,-0.0202 0.0312,-0.0312 l 0,-0.0312 c 4.16076,-8.41791 9.97808,-18.95769 17.4375,-31.53125 L 574,423.625 c 0.89126,-1.5141 1.47214,-2.98955 1.65625,-4.46875 0.30919,-2.48627 -0.48607,-5.04082 -2.25,-6.875 -1.73461,-1.80328 -4.16534,-2.84366 -6.6875,-2.84375 z M 178.875,409.65625 c -12.27129,7e-5 -22.76175,5.17278 -30.8125,15.0625 -6.85326,8.33664 -10.86775,18.0669 -11.9375,29 -1.06272,11.26329 1.27639,20.7228 7.25,27.71875 5.32728,6.25701 12.56038,9.49999 20.96875,9.5 10.49046,-10e-6 19.72546,-4.58295 27.0625,-13.28125 6.45971,-7.65248 10.43165,-16.93288 11.90625,-27.625 1.38341,-9.96615 0.57921,-18.70868 -2.59375,-26.09375 -4.03132,-9.19431 -11.79612,-14.28117 -21.84375,-14.28125 z m 148.90625,0 c -12.2713,7e-5 -22.79083,5.17011 -30.84375,15.0625 -6.85582,8.33976 -10.83699,18.07197 -11.90625,29 -1.06271,11.26329 1.27637,20.7228 7.25,27.71875 5.32376,6.25288 12.52912,9.49999 20.9375,9.5 10.49045,-10e-6 19.72546,-4.58295 27.0625,-13.28125 6.45971,-7.65248 10.43164,-16.93288 11.90625,-27.625 1.38341,-9.96615 0.57921,-18.70868 -2.59375,-26.09375 -4.02917,-9.18943 -11.76487,-14.28117 -21.8125,-14.28125 z m 76.09375,17 c 0.25685,2e-5 0.98657,0.10944 2,0.46875 0.51383,0.18224 1.30682,0.59539 1.96875,0.90625 -0.54871,1.87067 -1.09925,3.7509 -1.5,5.46875 -0.55831,2.39286 -1.01734,4.65927 -1.28125,6.78125 -0.7528,6.05131 -1.11753,14.95689 -1.1875,26.5 -2.64979,2.02865 -5.00372,3.72426 -6.25,4.34375 -0.004,0.002 -0.0271,-0.002 -0.0312,0 -2.88303,1.40855 -6.30987,2.12501 -10.4375,2.125 -4.76405,10e-6 -7.40166,-1.39622 -9.15625,-4.40625 -1.75799,-3.01578 -2.46992,-8.14301 -1.5625,-15.4375 0.87935,-7.06921 3.97905,-13.21087 9.5625,-18.71875 5.56398,-5.48865 11.40086,-8.0312 17.875,-8.03125 z m 215.25,0 c 0.25685,2e-5 0.98655,0.10944 2,0.46875 0.51383,0.18224 1.30682,0.59539 1.96875,0.90625 -0.54871,1.87068 -1.09925,3.75091 -1.5,5.46875 -0.56326,2.4141 -0.98937,4.68566 -1.25,6.78125 -0.75254,6.04917 -1.14685,14.96666 -1.21875,26.53125 -2.63753,2.02238 -4.98533,3.69931 -6.21875,4.3125 -0.004,0.002 -0.0271,-0.002 -0.0312,0 -2.87752,1.40576 -6.34112,2.12501 -10.46875,2.125 -4.76405,10e-6 -7.40168,-1.39623 -9.15625,-4.40625 -1.75799,-3.01578 -2.46991,-8.14301 -1.5625,-15.4375 0.87851,-7.06234 4.00708,-13.20769 9.59375,-18.71875 5.56721,-5.49183 11.36961,-8.0312 17.84375,-8.03125 z m -442.9375,2.28125 c 0.0104,6e-5 0.0208,6e-5 0.0312,0 4.41187,0.0198 6.61289,1.44481 8.15625,5.15625 1.54336,3.71144 1.86856,10.06337 0.46875,18.78125 -0.97901,6.14315 -3.42699,10.77553 -7.375,14.25 -6e-5,0.0104 -6e-5,0.0208 0,0.0312 -3.51763,3.16548 -7.19054,4.59376 -11.375,4.59375 -3.47098,10e-6 -5.97742,-1.14583 -8.21875,-3.75 -2.62208,-3.08145 -3.71552,-7.46445 -2.9375,-13.71875 0.78592,-6.31811 2.87857,-11.84297 6.28125,-16.71875 0.009,-0.013 0.0221,-0.0183 0.0312,-0.0312 4.25581,-6.01094 8.97989,-8.63423 14.9375,-8.59375 z m 148.90625,0 c 0.0104,6e-5 0.0208,6e-5 0.0312,0 4.41186,0.0198 6.61946,1.44507 8.15625,5.15625 1.53679,3.71118 1.83754,10.06192 0.4375,18.78125 -0.97902,6.14316 -3.42698,10.77553 -7.375,14.25 -6e-5,0.0104 -6e-5,0.0208 0,0.0312 -3.51762,3.16548 -7.19054,4.59376 -11.375,4.59375 -3.47098,10e-6 -5.97744,-1.14583 -8.21875,-3.75 -2.62209,-3.08145 -3.71552,-7.46445 -2.9375,-13.71875 0.78592,-6.31811 2.87856,-11.84297 6.28125,-16.71875 0.009,-0.013 0.0221,-0.0183 0.0312,-0.0312 4.25281,-6.00649 9.01121,-8.63423 14.96875,-8.59375 z"
         id="path4456"
         inkscape:connector-curvature="0"
         sodipodi:nodetypes="cccscccccccsscccccccccccccccccccccccscssccccssccccccccscscccccsscsscccsscccccccccccccsccccsscsscccsscccccccccccccscccccccccccscccccscccccccccccccccccccccscccccssccccccccccccccccsccccccccsccccccccccccscssccccccccccscssccccscccscsccccccscccscsccsc" />
    </clipPath>
    <filter
       inkscape:collect="always"
       id="filter4471"
       x="-0.10267475"
       width="1.2053494"
       y="-2.3409674"
       height="5.6819348"
       color-interpolation-filters="sRGB">
      <feGaussianBlur
         inkscape:collect="always"
         stdDeviation="28.946472"
         id="feGaussianBlur4473" />
    </filter>
    <clipPath
       clipPathUnits="userSpaceOnUse"
       id="clipPath4479">
      <path
         style="font-size:142.21144104px;font-style:normal;font-variant:normal;font-weight:normal;font-stretch:normal;text-indent:0;text-align:start;text-decoration:none;line-height:125%;letter-spacing:0px;word-spacing:0px;text-transform:none;direction:ltr;block-progression:tb;writing-mode:lr-tb;text-anchor:start;baseline-shift:baseline;color:#000000;fill:#ff1616;fill-opacity:0.51960784;stroke:none;stroke-width:8;marker:none;visibility:visible;display:inline;overflow:visible;enable-background:accumulate;font-family:Comic Sans MS;-inkscape-font-specification:Comic Sans MS"
         d="m 102.3125,368.56214 c -4.153726,1.1e-4 -7.700678,0.1585 -10.65625,0.40625 -2.644018,0.22183 -4.795295,0.59904 -6.8125,1.125 -2.433689,-0.0465 -5.02887,0.40749 -7.28125,2 -2.613992,1.84818 -4.282459,4.52176 -5.375,7.34375 -0.0033,0.009 0.0033,0.0226 0,0.0312 -1.185853,3.04319 -1.899737,6.73696 -2.5,11.5625 l -1.1875,9.5 0,0.0312 c -0.778756,5.53668 -2.456596,15.04482 -5.03125,28.34375 -2.384382,12.43089 -4.025765,22.1093 -4.90625,29.1875 l -2.53125,20.4375 c -0.417462,3.35586 0.387053,6.89254 2.65625,9.65625 2.362611,2.87753 5.878725,4.34374 9.4375,4.34375 3.474266,-1e-5 6.73912,-1.3698 9.21875,-3.6875 2.412549,-2.25507 4.049085,-5.31411 4.46875,-8.6875 1.806827,-14.52507 3.099553,-23.37378 4.21875,-30.34375 0.89961,0.0964 1.912938,0.28128 2.71875,0.28125 12.16268,4e-5 23.37513,-3.51717 33,-10.40625 10.87279,-7.74798 17.55349,-18.83379 19.1875,-31.96875 1.36689,-10.98906 -2.88377,-21.30318 -11.5625,-28.84375 -7.73908,-6.69681 -17.05896,-10.31237 -27.0625,-10.3125 z m 384.90625,35.90625 c -9.07714,6e-5 -17.76964,2.92948 -25.96875,7.90625 -1.98406,-4.12636 -6.17384,-6.59368 -10.65625,-6.59375 -3.4038,7e-5 -6.9009,1.13927 -9.46875,3.71875 -2.50384,2.51518 -3.65289,5.80089 -4.0625,9.09375 -0.16572,1.33214 -0.50843,3.59576 -1,6.625 -0.51063,3.14641 -0.8339,5.53843 -1.03125,7.125 l -5.8125,46.625 c -0.37222,-1.13783 -0.60818,-1.98858 -0.78125,-2.625 l -0.125,-0.4375 -0.0312,-0.0625 c -1.64447,-5.93388 -2.56806,-10.25041 -2.65625,-11 -4.7e-4,-0.004 4.2e-4,-0.0587 0,-0.0625 l -0.0312,-0.21875 c -0.29171,-2.32203 -0.18709,-6.51453 0.53125,-11.9375 0.81993,-6.22393 1.59238,-11.28703 2.3125,-15.125 0.67898,-3.61937 1.36181,-6.08276 1.75,-7.15625 1.07928,-1.47848 1.98939,-3.18714 2.25,-5.28125 0.47299,-3.80287 -0.89667,-7.46878 -3.3125,-10.21875 -2.29424,-2.61156 -5.31485,-4.46841 -8.84375,-6 -2.46306,-1.08232 -4.89158,-1.88155 -7.3125,-2.5 l 1.1875,-1.1875 -9.65625,0 c -12.35883,8e-5 -23.83369,4.84165 -33.53125,13.71875 -6.59708,6.039 -11.31666,13.20669 -14.25,21.125 -0.11956,-6.3528 -1.14346,-12.31686 -3.4375,-17.65625 l -0.0312,0 c -4.56704,-10.41615 -14.06978,-16.68741 -25.46875,-16.6875 -13.39478,8e-5 -25.23864,5.84537 -33.9375,16.53125 -7.34284,8.93219 -11.6407,19.49959 -12.78125,31.15625 -1.13395,12.01829 1.39247,22.72958 8.1875,30.6875 6.03553,7.08887 14.53057,10.90624 23.96875,10.90625 11.65543,-10e-6 22.16784,-5.25403 30.125,-14.6875 4.38681,-5.19682 7.59439,-11.18779 9.84375,-17.6875 0.13871,7.83033 1.67495,14.6203 5.375,20 0.008,0.0115 0.0233,0.0198 0.0312,0.0312 5.70991,8.28839 15.8577,12 27.9375,12 3.43619,0 6.934,-0.86079 10.84375,-2.21875 2.51625,-0.87398 5.41179,-2.28077 8.28125,-3.625 0.45035,0.567 0.67193,0.99889 1.28125,1.625 l 0.0312,0.0312 c 0.0283,0.0288 0.0337,0.0342 0.0625,0.0625 1.20423,1.19001 2.32693,2.17033 3.53125,3 0.93191,0.642 2.97471,1.96875 5.53125,1.96875 3.38423,0 6.49705,-1.3436 8.9375,-3.375 1.80051,-1.49885 3.18432,-3.45305 4.03125,-5.65625 0.3144,1.63928 0.92807,3.25086 2.03125,4.71875 2.41714,3.21617 6.20507,4.375 9.625,4.375 3.47333,0 7.04202,-0.99745 9.78125,-3.46875 2.73717,-2.46944 4.07305,-5.88041 4.5,-9.3125 l 0,-0.0312 4.40625,-36.4375 c 2.94502,-4.86988 6.06942,-8.38087 9.28125,-10.53125 l 0.0312,-0.0312 c 0.0178,-0.012 0.0446,-0.0193 0.0625,-0.0312 1.95781,-1.3125 4.47651,-2.31649 7.28125,-3.1875 -0.0346,0.39717 -0.10736,1.32688 -0.125,1.46875 -0.39411,3.16789 -0.19588,6.81991 2.0625,9.875 2.38148,3.22162 6.1534,4.40628 9.5625,4.40625 3.78304,4e-5 7.46128,-1.49883 10.0625,-4.3125 1.79512,-1.94174 2.80294,-4.33097 3.5625,-6.84375 l 15.84375,40.0625 c -5.48261,9.60939 -10.13689,18.02025 -13.21875,24.21874 -3.40918,6.85683 -5.52383,11.32588 -6.0625,15.65625 -0.45918,3.69119 0.70504,7.47598 3.375,10.1875 2.51934,2.55844 5.95787,3.87493 9.46875,3.875 5.31845,-7e-5 9.70056,-3.36078 12.21875,-7.84375 l 0.34375,-0.34375 0.21875,-0.53125 0.0625,-0.0937 6.1875,-13.3125 0.0312,-0.0625 0,-0.0312 c 0.009,-0.0204 0.0217,-0.0103 0.0312,-0.0312 l 0.375,-0.75 c 4.06864,-8.16396 9.66277,-18.31184 16.875,-30.46874 l 30.5,-51.9375 c 1.08211,-1.83832 1.91629,-3.821 2.1875,-6 0.45426,-3.6528 -0.70995,-7.41756 -3.34375,-10.15625 -2.49603,-2.59485 -5.94044,-4.06237 -9.5625,-4.0625 -4.94242,1.5e-4 -9.07272,2.94723 -11.71875,6.75 -4.31616,6.18326 -8.84725,13.45763 -13.65625,21.875 l -0.0312,0.0625 -0.5,0.84375 0,0.0625 -5.65625,10.21875 c -4.99178,-13.74895 -10.03546,-25.21384 -15.25,-33.96875 -0.004,-0.007 0.004,-0.024 0,-0.0312 l -0.0312,0 c -2.18408,-3.66866 -6.15486,-5.65612 -10.25,-5.65625 -3.63846,1.5e-4 -6.91049,1.56955 -9.46875,3.8125 -0.27861,0.24429 -0.45708,0.58088 -0.71875,0.84375 -2.91309,-3.68306 -7.4292,-5.78116 -12.21875,-5.78125 z m 132.53125,0.6875 c -12.35882,8e-5 -23.8337,4.84164 -33.53125,13.71875 -9.71901,8.89683 -15.64052,20.09389 -17.21875,32.78125 -1.57479,12.65954 -0.52433,23.14671 4.8125,30.90625 0.008,0.0115 0.0234,0.0198 0.0312,0.0312 5.70992,8.28837 15.8577,12 27.9375,12 3.43469,0 6.95447,-0.85705 10.875,-2.21875 2.52073,-0.87553 5.41186,-2.2801 8.28125,-3.625 0.44853,0.56621 0.67199,0.99896 1.28125,1.625 l 0.0312,0.0312 c 0.0282,0.0288 0.0337,0.0342 0.0625,0.0625 1.18135,1.16741 2.29048,2.15787 3.5,3 0.94377,0.65709 2.97567,1.96875 5.53125,1.96875 3.37083,0 6.50184,-1.3216 8.96875,-3.375 2.66189,-2.21591 4.38493,-5.34509 4.8125,-8.78125 l 0,-0.0312 0,-0.0312 c 0.0829,-0.76521 0.0279,-1.53254 -0.15625,-2.28125 l 0.0312,0 -0.28125,-1.1875 c -0.043,-0.1804 -0.13079,-0.35878 -0.1875,-0.53125 -0.004,-0.013 0.004,-0.0183 0,-0.0312 -0.4239,-1.27634 -0.65631,-2.15447 -0.84375,-2.84375 l -0.125,-0.4375 -0.0312,-0.0625 c -1.63939,-5.91557 -2.52867,-10.16532 -2.625,-11 -5.2e-4,-0.004 4.7e-4,-0.0582 0,-0.0625 l -0.0312,-0.21875 c -0.29731,-2.36667 -0.21549,-6.53669 0.5,-11.9375 0.81993,-6.22393 1.59239,-11.287 2.3125,-15.125 0.67534,-3.59993 1.35362,-6.02713 1.75,-7.125 1.08369,-1.47122 2.01757,-3.19364 2.28125,-5.3125 0.47256,-3.79933 -0.88174,-7.4987 -3.3125,-10.25 -2.3086,-2.61303 -5.35225,-4.43983 -8.875,-5.96875 -5.36705,-2.3584 -10.62196,-3.68741 -15.78125,-3.6875 z m -343,0.28125 c -4.94242,1.5e-4 -9.07272,2.94723 -11.71875,6.75 -4.31616,6.18326 -8.84725,13.45763 -13.65625,21.875 l -0.0312,0.0625 -0.5,0.84375 0,0.0625 -5.65625,10.21875 c -4.98076,-13.75333 -10.02897,-25.20286 -15.25,-33.96875 -0.004,-0.007 0.004,-0.024 0,-0.0312 l -0.0312,0 c -2.18407,-3.66866 -6.15485,-5.65612 -10.25,-5.65625 -3.63846,1.5e-4 -6.91049,1.56955 -9.46875,3.8125 -2.64559,2.31972 -4.57832,5.48388 -5.03125,9.125 -0.4021,3.23249 0.52364,6.21879 1.78125,8.9375 l 0,0.0312 0.0312,0 c 0.0181,0.0376 0.0134,0.0897 0.0312,0.125 0.01,0.019 0.0218,0.0441 0.0312,0.0625 l 2.28125,4.5625 0.0625,0.125 0.0312,0.0937 17.65625,44.65625 c -5.48261,9.60939 -10.13689,18.02025 -13.21875,24.21874 -3.40919,6.85683 -5.52384,11.32586 -6.0625,15.65625 -0.45113,3.62623 0.63383,7.43539 3.34375,10.1875 2.54429,2.58378 6.0054,3.87493 9.5,3.875 5.31845,-7e-5 9.70057,-3.36077 12.21875,-7.84375 l 0.34375,-0.34375 0.21875,-0.53125 0.0625,-0.0937 6.1875,-13.3125 0.0312,-0.0625 0,-0.0312 c 0.009,-0.0204 0.0217,-0.0103 0.0312,-0.0312 l 0.375,-0.75 c 4.06864,-8.16395 9.66278,-18.31184 16.875,-30.46874 l 30.46875,-51.9375 c 1.03264,-1.75428 1.93482,-3.71887 2.21875,-6 0.46228,-3.71725 -0.78118,-7.45915 -3.375,-10.15625 -2.47121,-2.56905 -5.89334,-4.06237 -9.53125,-4.0625 z m -97.875,0.21875 c -13.39536,8e-5 -25.21258,5.85175 -33.90625,16.53125 -7.33623,8.92415 -11.6707,19.4868 -12.8125,31.15625 -1.13396,12.0183 1.3925,22.72958 8.1875,30.6875 6.04358,7.09832 14.56314,10.90624 24,10.90625 11.65544,-10e-6 22.16784,-5.25403 30.125,-14.6875 6.96029,-8.24549 11.24438,-18.32403 12.8125,-29.65625 0.001,-0.0103 -0.001,-0.021 0,-0.0312 1.4502,-10.47827 0.64961,-20.01522 -2.875,-28.21875 l -0.0312,0 c -4.57195,-10.42734 -14.10232,-16.68741 -25.5,-16.6875 z M 239.5,509.15588 c -0.25474,0.46047 -0.49885,0.84173 -0.65625,0.96875 0.15541,-0.13491 0.40631,-0.53198 0.65625,-0.96875 z m 289.96875,0 c -0.25474,0.46047 -0.49885,0.84173 -0.65625,0.96875 0.15541,-0.13491 0.40631,-0.53198 0.65625,-0.96875 z"
         id="path4481"
         inkscape:connector-curvature="0"
         sodipodi:nodetypes="cccsccccccccssccccccccccccsscccccccccccccscccsscccccccsccccssccccssccsssccccccccscsccsscccccccccccccccccccccccccccccccssccssccccsscccccccccccccccccccscccccccccccccccscccccccccsccccccccccccccccccccccsccccccccccccc" />
    </clipPath>
    <linearGradient
       inkscape:collect="always"
       xlink:href="#linearGradient3777"
       id="linearGradient4483"
       gradientUnits="userSpaceOnUse"
       x1="60.740429"
       y1="449.8125"
       x2="642.9953"
       y2="449.8125" />
  </defs>
  <sodipodi:namedview
     id="base"
     pagecolor="#ffffff"
     bordercolor="#666666"
     borderopacity="1.0"
     inkscape:pageopacity="0.0"
     inkscape:pageshadow="2"
     inkscape:zoom="0.49497475"
     inkscape:cx="246.49896"
     inkscape:cy="40.199624"
     inkscape:document-units="px"
     inkscape:current-layer="layer1"
     showgrid="false"
     inkscape:snap-bbox="true"
     inkscape:snap-bbox-midpoints="false"
     inkscape:bbox-nodes="false"
     inkscape:snap-bbox-edge-midpoints="false"
     inkscape:object-nodes="false"
     inkscape:object-paths="false"
     inkscape:window-width="694"
     inkscape:window-height="456"
     inkscape:window-x="176"
     inkscape:window-y="176"
     inkscape:window-maximized="0"
     fit-margin-top="0"
     fit-margin-left="0"
     fit-margin-right="0"
     fit-margin-bottom="0" />
  <metadata
     id="metadata7">
    <rdf:RDF>
      <cc:Work
         rdf:about="">
        <dc:format>image/svg+xml</dc:format>
        <dc:type
           rdf:resource="http://purl.org/dc/dcmitype/StillImage" />
        <dc:title></dc:title>
      </cc:Work>
    </rdf:RDF>
  </metadata>
  <g
     inkscape:label="Layer 1"
     inkscape:groupmode="layer"
     id="layer1"
     transform="translate(-55.924631,-368.5625)">
    <path
       sodipodi:nodetypes="cccscccccccsscccccccccccccccccccccccscssccccssccccccccscscccccsscsscccsscccccccccccccsccccsscsscccsscccccccccccccscccccccccccscccccscccccccccccccccccccccscccccssccccccccccccccccsccccccccsccccccccccccscssccccccccccscssccccscccscsccccccscccscsccsc"
       inkscape:connector-curvature="0"
       id="path3007"
       d="m 102.3125,372.5625 c -4.043202,1.1e-4 -7.46767,0.16778 -10.3125,0.40625 -2.715813,0.22785 -4.835758,0.55656 -6.625,1.0625 -1.962431,-0.14693 -3.918786,0.22578 -5.5,1.34375 -1.802222,1.27423 -3.063002,3.18331 -3.96875,5.53125 -0.9698,2.47997 -1.666493,5.93416 -2.25,10.625 l -1.1875,9.53125 0,0.0312 c -0.799457,5.68911 -2.479045,15.21811 -5.0625,28.5625 -2.376187,12.38817 -4.015158,22.02525 -4.875,28.9375 L 60,479.03125 c -0.297913,2.39484 0.285632,4.80345 1.78125,6.625 1.520003,1.85128 3.903793,2.87499 6.34375,2.875 2.40873,-10e-6 4.721339,-0.96249 6.5,-2.625 1.756882,-1.6422 2.918417,-3.83584 3.21875,-6.25 2.031593,-16.33196 3.549719,-27.13075 4.75,-34.21875 2.409839,0.30869 4.955734,0.65629 6.15625,0.65625 11.40462,4e-5 21.72593,-3.24193 30.6875,-9.65625 10.05921,-7.16822 16.02375,-17.10073 17.53125,-29.21875 1.21173,-9.74165 -2.36351,-18.48743 -10.21875,-25.3125 -7.09512,-6.13957 -15.37693,-9.34363 -24.4375,-9.34375 z m -3.21875,18.40625 c 5.4321,8e-5 10.1098,1.5018 14.40625,4.625 3.57073,3.08898 6.0504,7.28011 5.65625,11.00005 -0.82599,6.63966 -3.95779,11.66709 -9.8125,15.625 -5.36482,3.63144 -11.579218,5.43222 -18.90625,5.4375 l -0.03125,0 -4.53125,-0.5625 4.4375,-24.96875 c 0.01101,-0.031 0.02143,-0.0623 0.03125,-0.0937 L 91.78125,391.25 c 0.661794,-0.0654 1.196767,-0.14121 2,-0.1875 1.531495,-0.0881 3.30288,-0.0937 5.3125,-0.0937 z m 388.125,17.5 c -9.89246,6e-5 -19.40633,3.60544 -28.4375,10.1875 -0.12924,-1.66723 -0.46382,-3.16347 -1.09375,-4.5 -1.25987,-2.67305 -4.09612,-4.37495 -7.09375,-4.375 -2.53426,5e-5 -4.9279,0.82646 -6.625,2.53125 -1.6971,1.70479 -2.60082,4.07467 -2.9375,6.78125 -0.1818,1.46139 -0.53779,3.74035 -1.03125,6.78125 -0.50094,3.08671 -0.80601,5.40921 -1,6.96875 l -6.09375,48.75 c -0.33659,2.70579 -0.0796,5.1895 1.375,7.125 1.45464,1.9355 3.90983,2.78125 6.4375,2.78125 2.72774,0 5.23734,-0.76267 7.09375,-2.4375 1.85641,-1.67483 2.87658,-4.09316 3.21875,-6.84375 l 4.53125,-37.4375 c 3.27876,-5.59965 6.91281,-9.70132 10.90625,-12.375 6e-5,-0.0104 6e-5,-0.0208 0,-0.0312 3.69465,-2.49377 8.39757,-4.2141 14.03125,-5.21875 l -0.21875,2.46875 c -5.7e-4,0.0312 -5.7e-4,0.0625 0,0.0937 -0.1547,2.35841 -0.28762,4.01599 -0.375,4.71875 -0.32998,2.65242 -0.10725,5.07939 1.3125,7 1.41975,1.92061 3.85795,2.78127 6.34375,2.78125 2.73217,3e-5 5.31796,-1.07662 7.125,-3.03125 1.80704,-1.95463 2.86036,-4.58209 3.4375,-7.78125 0.16762,-0.93204 0.41587,-2.56573 0.71875,-5 0.74222,-5.96724 0.4484,-10.70413 -1.46875,-14.3125 -1.91671,-3.60703 -5.75233,-5.62492 -10.15625,-5.625 z M 404.5,409.15625 c -11.33817,7e-5 -21.75864,4.33978 -30.84375,12.65625 -9.09102,8.32197 -14.5029,18.55988 -15.96875,30.34375 -1.51576,12.18508 -0.32738,21.61412 4.1875,28.15625 4.77965,6.96531 13.34005,10.28125 24.65625,10.28125 2.73623,0 5.84084,-0.71822 9.53125,-2 3.12,-1.08368 6.86836,-2.79683 10.8125,-4.71875 0.86919,1.21072 1.63923,2.38471 2.9375,3.71875 0.0103,0.0105 0.0207,0.0209 0.0312,0.0312 1.09869,1.08572 2.06025,1.9151 3,2.5625 0.93975,0.6474 1.80729,1.25 3.25,1.25 2.32433,0 4.55653,-0.92383 6.375,-2.4375 1.87548,-1.56126 3.13169,-3.76109 3.4375,-6.21875 0.0328,-0.30261 0.0116,-0.61101 -0.0625,-0.90625 l -0.28125,-1.1875 c -0.0176,-0.0738 -0.0384,-0.14676 -0.0625,-0.2187 -0.52557,-1.57925 -0.86152,-2.7711 -1.0625,-3.53125 6e-5,-0.0104 6e-5,-0.0208 0,-0.0312 -1.68255,-6.07127 -2.65033,-10.20438 -2.8125,-11.78125 2.5e-4,-0.0208 2.5e-4,-0.0417 0,-0.0625 -0.3705,-2.9492 -0.21314,-7.34909 0.53125,-12.96875 0.82546,-6.26593 1.60142,-11.3874 2.34375,-15.34375 0.72828,-3.88218 1.44703,-6.60023 2,-8.0625 1.0208,-1.20388 1.78049,-2.61227 1.96875,-4.125 0.31663,-2.54572 -0.59358,-5.10151 -2.34375,-7.09375 -1.75017,-1.99224 -4.23524,-3.57893 -7.4375,-4.96875 -4.98739,-2.19157 -9.71511,-3.34367 -14.1875,-3.34375 z m 215.25,0 c -11.33816,7e-5 -21.75865,4.33978 -30.84375,12.65625 -9.0933,8.32405 -14.47224,18.56457 -15.9375,30.34375 -1.51522,12.18065 -0.36222,21.6089 4.15625,28.15625 4.77966,6.9653 13.34006,10.28125 24.65625,10.28125 2.73623,0 5.86764,-0.71668 9.5625,-2 3.13022,-1.08723 6.86782,-2.79222 10.8125,-4.71875 0.87941,1.20989 1.64948,2.39526 2.9375,3.71875 0.0103,0.0105 0.0207,0.0209 0.0312,0.0312 1.09405,1.08114 2.03816,1.91458 2.96875,2.5625 0.93059,0.64792 1.80729,1.25 3.25,1.25 2.32433,0 4.57373,-0.91215 6.40625,-2.4375 1.88954,-1.57296 3.10397,-3.78946 3.40625,-6.21875 0.0328,-0.30261 0.0116,-0.61101 -0.0625,-0.90625 l -0.28125,-1.1875 c -0.0176,-0.0738 -0.0385,-0.1468 -0.0625,-0.21875 -0.52556,-1.57927 -0.86152,-2.77112 -1.0625,-3.53125 6e-5,-0.0104 6e-5,-0.0208 0,-0.0312 -1.68036,-6.0634 -2.6164,-10.17838 -2.78125,-11.78125 2.5e-4,-0.0208 2.5e-4,-0.0417 0,-0.0625 -0.37248,-2.96502 -0.24327,-7.35827 0.5,-12.96875 0.82546,-6.26593 1.60143,-11.38739 2.34375,-15.34375 0.72563,-3.86801 1.44788,-6.56457 2,-8.03125 1.02698,-1.19169 1.8068,-2.60372 2,-4.15625 0.31753,-2.55291 -0.58616,-5.10439 -2.34375,-7.09375 -1.75759,-1.98936 -4.26799,-3.57958 -7.46875,-4.96875 -4.98739,-2.19157 -9.7151,-3.34367 -14.1875,-3.34375 z m -343,0.28125 c -3.34614,10e-5 -6.33053,2.0032 -8.4375,5.03125 -4.22698,6.0555 -8.70548,13.22518 -13.46875,21.5625 -6e-5,0.0104 -6e-5,0.0208 0,0.0312 l -10.46875,18.9063 c -5.92091,-17.54043 -11.84237,-31.53334 -17.875,-41.65625 -1.37907,-2.33769 -4.05413,-3.71866 -6.84375,-3.71875 -2.49254,10e-5 -4.85776,1.07129 -6.84375,2.8125 -2.01339,1.76539 -3.37072,4.07842 -3.6875,6.625 -0.27084,2.17729 0.33772,4.37249 1.4375,6.75 0.0101,0.021 0.0205,0.0418 0.0312,0.0625 l 2.4063,4.84375 0.0937,0.21875 18.375,46.5 c -6.01483,10.49011 -10.79577,19.21129 -14.03125,25.71875 -3.37292,6.78389 -5.2867,11.15288 -5.6875,14.375 -0.31094,2.49937 0.44907,5.07777 2.21875,6.875 1.73066,1.75752 4.15173,2.68745 6.65625,2.6875 3.93058,-5e-5 7.29841,-2.57786 9.1875,-6.46875 0.0105,-0.0103 0.0209,-0.0207 0.0312,-0.0312 l 6.21875,-13.40625 c 0.005,-0.011 0.0258,-0.0202 0.0312,-0.0312 l 0,-0.0312 c 4.16076,-8.41791 9.97809,-18.95769 17.4375,-31.53125 L 284,423.625 c 0.87565,-1.48757 1.49697,-2.93799 1.6875,-4.46875 0.31272,-2.51463 -0.53172,-5.05581 -2.28125,-6.875 -1.72019,-1.78829 -4.13408,-2.84366 -6.65625,-2.84375 z m 289.96875,0 c -3.34614,10e-5 -6.33053,2.0032 -8.4375,5.03125 -4.22698,6.0555 -8.70548,13.22518 -13.46875,21.5625 -6e-5,0.0104 -6e-5,0.0208 0,0.0312 l -10.4375,18.875 c -5.92337,-17.52876 -11.87854,-31.51035 -17.90625,-41.625 -1.37908,-2.3377 -4.05413,-3.71866 -6.84375,-3.71875 -2.49254,10e-5 -4.85776,1.07129 -6.84375,2.8125 -2.01337,1.76539 -3.37072,4.07842 -3.6875,6.625 -0.27084,2.17729 0.33772,4.37249 1.4375,6.75 0.0101,0.021 0.0205,0.0418 0.0312,0.0625 l 2.40625,4.84375 0.0937,0.21875 18.375,46.5 c -6.01483,10.49011 -10.79578,19.21129 -14.03125,25.71875 -3.37291,6.78389 -5.28669,11.15289 -5.6875,14.375 -0.31436,2.52702 0.49534,5.09303 2.25,6.875 1.71561,1.74224 4.12047,2.68745 6.625,2.6875 3.93058,-5e-5 7.2984,-2.57786 9.1875,-6.46875 0.0105,-0.0103 0.0209,-0.0207 0.0312,-0.0312 l 6.21875,-13.40625 c 0.005,-0.011 0.0258,-0.0202 0.0312,-0.0312 l 0,-0.0312 c 4.16076,-8.41791 9.97808,-18.95769 17.4375,-31.53125 L 574,423.625 c 0.89126,-1.5141 1.47214,-2.98955 1.65625,-4.46875 0.30919,-2.48627 -0.48607,-5.04082 -2.25,-6.875 -1.73461,-1.80328 -4.16534,-2.84366 -6.6875,-2.84375 z M 178.875,409.65625 c -12.27129,7e-5 -22.76175,5.17278 -30.8125,15.0625 -6.85326,8.33664 -10.86775,18.0669 -11.9375,29 -1.06272,11.26329 1.27639,20.7228 7.25,27.71875 5.32728,6.25701 12.56038,9.49999 20.96875,9.5 10.49046,-10e-6 19.72546,-4.58295 27.0625,-13.28125 6.45971,-7.65248 10.43165,-16.93288 11.90625,-27.625 1.38341,-9.96615 0.57921,-18.70868 -2.59375,-26.09375 -4.03132,-9.19431 -11.79612,-14.28117 -21.84375,-14.28125 z m 148.90625,0 c -12.2713,7e-5 -22.79083,5.17011 -30.84375,15.0625 -6.85582,8.33976 -10.83699,18.07197 -11.90625,29 -1.06271,11.26329 1.27637,20.7228 7.25,27.71875 5.32376,6.25288 12.52912,9.49999 20.9375,9.5 10.49045,-10e-6 19.72546,-4.58295 27.0625,-13.28125 6.45971,-7.65248 10.43164,-16.93288 11.90625,-27.625 1.38341,-9.96615 0.57921,-18.70868 -2.59375,-26.09375 -4.02917,-9.18943 -11.76487,-14.28117 -21.8125,-14.28125 z m 76.09375,17 c 0.25685,2e-5 0.98657,0.10944 2,0.46875 0.51383,0.18224 1.30682,0.59539 1.96875,0.90625 -0.54871,1.87067 -1.09925,3.7509 -1.5,5.46875 -0.55831,2.39286 -1.01734,4.65927 -1.28125,6.78125 -0.7528,6.05131 -1.11753,14.95689 -1.1875,26.5 -2.64979,2.02865 -5.00372,3.72426 -6.25,4.34375 -0.004,0.002 -0.0271,-0.002 -0.0312,0 -2.88303,1.40855 -6.30987,2.12501 -10.4375,2.125 -4.76405,10e-6 -7.40166,-1.39622 -9.15625,-4.40625 -1.75799,-3.01578 -2.46992,-8.14301 -1.5625,-15.4375 0.87935,-7.06921 3.97905,-13.21087 9.5625,-18.71875 5.56398,-5.48865 11.40086,-8.0312 17.875,-8.03125 z m 215.25,0 c 0.25685,2e-5 0.98655,0.10944 2,0.46875 0.51383,0.18224 1.30682,0.59539 1.96875,0.90625 -0.54871,1.87068 -1.09925,3.75091 -1.5,5.46875 -0.56326,2.4141 -0.98937,4.68566 -1.25,6.78125 -0.75254,6.04917 -1.14685,14.96666 -1.21875,26.53125 -2.63753,2.02238 -4.98533,3.69931 -6.21875,4.3125 -0.004,0.002 -0.0271,-0.002 -0.0312,0 -2.87752,1.40576 -6.34112,2.12501 -10.46875,2.125 -4.76405,10e-6 -7.40168,-1.39623 -9.15625,-4.40625 -1.75799,-3.01578 -2.46991,-8.14301 -1.5625,-15.4375 0.87851,-7.06234 4.00708,-13.20769 9.59375,-18.71875 5.56721,-5.49183 11.36961,-8.0312 17.84375,-8.03125 z m -442.9375,2.28125 c 0.0104,6e-5 0.0208,6e-5 0.0312,0 4.41187,0.0198 6.61289,1.44481 8.15625,5.15625 1.54336,3.71144 1.86856,10.06337 0.46875,18.78125 -0.97901,6.14315 -3.42699,10.77553 -7.375,14.25 -6e-5,0.0104 -6e-5,0.0208 0,0.0312 -3.51763,3.16548 -7.19054,4.59376 -11.375,4.59375 -3.47098,10e-6 -5.97742,-1.14583 -8.21875,-3.75 -2.62208,-3.08145 -3.71552,-7.46445 -2.9375,-13.71875 0.78592,-6.31811 2.87857,-11.84297 6.28125,-16.71875 0.009,-0.013 0.0221,-0.0183 0.0312,-0.0312 4.25581,-6.01094 8.97989,-8.63423 14.9375,-8.59375 z m 148.90625,0 c 0.0104,6e-5 0.0208,6e-5 0.0312,0 4.41186,0.0198 6.61946,1.44507 8.15625,5.15625 1.53679,3.71118 1.83754,10.06192 0.4375,18.78125 -0.97902,6.14316 -3.42698,10.77553 -7.375,14.25 -6e-5,0.0104 -6e-5,0.0208 0,0.0312 -3.51762,3.16548 -7.19054,4.59376 -11.375,4.59375 -3.47098,10e-6 -5.97744,-1.14583 -8.21875,-3.75 -2.62209,-3.08145 -3.71552,-7.46445 -2.9375,-13.71875 0.78592,-6.31811 2.87856,-11.84297 6.28125,-16.71875 0.009,-0.013 0.0221,-0.0183 0.0312,-0.0312 4.25281,-6.00649 9.01121,-8.63423 14.96875,-8.59375 z"
       style="font-size:142.21144104px;font-style:normal;font-variant:normal;font-weight:normal;font-stretch:normal;line-height:125%;letter-spacing:0px;word-spacing:0px;fill:url(#linearGradient4483);fill-opacity:1;stroke:none;font-family:Comic Sans MS;-inkscape-font-specification:Comic Sans MS" />
    <path
       style="fill:none;stroke:#ffffff;stroke-width:6;stroke-linecap:round;stroke-linejoin:miter;stroke-miterlimit:4;stroke-opacity:1;stroke-dasharray:none;filter:url(#filter4405)"
       d="m 97.15625,378.40625 c -3.701262,0.0789 -7.829949,0.49048 -12.3125,1.4375 l 32.84375,2.53125 c -2.08344,-1.32583 -9.42746,-4.2055 -20.53125,-3.96875 z m 389.90625,35.8125 c -5.3033,-0.0311 -16.6185,3.3796 -20.375,6.03125 l 22.21875,-5.8125 c -0.47351,-0.15784 -1.08614,-0.21431 -1.84375,-0.21875 z m -82.1875,0.59375 c -8.69407,-0.0394 -19.36032,3.33478 -28.59375,12 l 43.6875,-6.5625 c -2.76213,-3.31457 -8.3317,-5.40686 -15.09375,-5.4375 z m -127.125,0.0937 c -1.56258,-0.15389 -3.11358,0.79727 -4.25,2.3125 l 5.8125,-1.75 c -0.50508,-0.31567 -1.04164,-0.5112 -1.5625,-0.5625 z m 231.6875,0.21875 c -2.19244,0.0414 -4.27015,1.72335 -5.375,4.375 l 6.3125,-4.28125 c -0.31567,-0.0631 -0.62429,-0.0997 -0.9375,-0.0937 z m 57.09375,0.0937 c -1.10485,0.0631 -2.23604,0.73223 -3.625,2.5 l 7.0625,-1.25 c -1.26269,-0.75761 -2.33265,-1.31313 -3.4375,-1.25 z M 619.875,415.25 c -8.2357,0.0808 -18.37543,3.09204 -28.4375,11.8125 L 635.90625,420 c -2.95943,-2.6043 -8.76446,-4.82133 -16.03125,-4.75 z m -293.0625,0.65625 c -6.70184,0.20115 -14.56872,2.82927 -22.5,8.15625 l 39.125,0 c -2.95154,-5.50059 -9.02958,-8.38422 -16.625,-8.15625 z m -107.34375,0.125 c -1.65728,0.0473 -3.61548,2.07472 -4.5625,3.96875 l 6.0625,-3.28125 c -0.44194,-0.50507 -0.94757,-0.70328 -1.5,-0.6875 z m -42.5,0.1875 c -5.01025,0.12904 -10.7983,1.63745 -16.875,5.0625 l 31.34375,0 c -2.84106,-3.12516 -8.02699,-5.22841 -14.46875,-5.0625 z"
       id="path3855"
       clip-path="url(#clipPath4454)"
       inkscape:connector-curvature="0" />
    <path
       style="font-size:142.21144104px;font-style:normal;font-variant:normal;font-weight:normal;font-stretch:normal;line-height:125%;letter-spacing:0px;word-spacing:0px;fill:none;stroke:url(#linearGradient3850);stroke-width:8;stroke-miterlimit:100;stroke-opacity:1;font-family:Comic Sans MS;-inkscape-font-specification:Comic Sans MS"
       d="m 102.3125,372.5625 c -4.043202,1.1e-4 -7.46767,0.16778 -10.3125,0.40625 -2.715813,0.22785 -4.835758,0.55656 -6.625,1.0625 -1.962431,-0.14693 -3.918786,0.22578 -5.5,1.34375 -1.802222,1.27423 -3.063002,3.18331 -3.96875,5.53125 -0.9698,2.47997 -1.666493,5.93416 -2.25,10.625 l -1.1875,9.53125 0,0.0312 c -0.799457,5.68911 -2.479045,15.21811 -5.0625,28.5625 -2.376187,12.38817 -4.015158,22.02525 -4.875,28.9375 L 60,479.03125 c -0.297913,2.39484 0.285632,4.80345 1.78125,6.625 1.520003,1.85128 3.903793,2.87499 6.34375,2.875 2.40873,-10e-6 4.721339,-0.96249 6.5,-2.625 1.756882,-1.6422 2.918417,-3.83584 3.21875,-6.25 2.031593,-16.33196 3.549719,-27.13075 4.75,-34.21875 2.409839,0.30869 4.955734,0.65629 6.15625,0.65625 11.40462,4e-5 21.72593,-3.24193 30.6875,-9.65625 10.05921,-7.16822 16.02375,-17.10073 17.53125,-29.21875 1.21173,-9.74165 -2.36351,-18.48743 -10.21875,-25.3125 -7.09512,-6.13957 -15.37693,-9.34363 -24.4375,-9.34375 z m -3.21875,18.40625 c 5.4321,8e-5 10.1098,1.5018 14.40625,4.625 3.57073,3.08898 6.0504,7.28011 5.65625,11.00005 -0.82599,6.63966 -3.95779,11.66709 -9.8125,15.625 -5.36482,3.63144 -11.579218,5.43222 -18.90625,5.4375 l -0.03125,0 -4.53125,-0.5625 4.4375,-24.96875 c 0.01101,-0.031 0.02143,-0.0623 0.03125,-0.0937 L 91.78125,391.25 c 0.661794,-0.0654 1.196767,-0.14121 2,-0.1875 1.531495,-0.0881 3.30288,-0.0937 5.3125,-0.0937 z m 388.125,17.5 c -9.89246,6e-5 -19.40633,3.60544 -28.4375,10.1875 -0.12924,-1.66723 -0.46382,-3.16347 -1.09375,-4.5 -1.25987,-2.67305 -4.09612,-4.37495 -7.09375,-4.375 -2.53426,5e-5 -4.9279,0.82646 -6.625,2.53125 -1.6971,1.70479 -2.60082,4.07467 -2.9375,6.78125 -0.1818,1.46139 -0.53779,3.74035 -1.03125,6.78125 -0.50094,3.08671 -0.80601,5.40921 -1,6.96875 l -6.09375,48.75 c -0.33659,2.70579 -0.0796,5.1895 1.375,7.125 1.45464,1.9355 3.90983,2.78125 6.4375,2.78125 2.72774,0 5.23734,-0.76267 7.09375,-2.4375 1.85641,-1.67483 2.87658,-4.09316 3.21875,-6.84375 l 4.53125,-37.4375 c 3.27876,-5.59965 6.91281,-9.70132 10.90625,-12.375 6e-5,-0.0104 6e-5,-0.0208 0,-0.0312 3.69465,-2.49377 8.39757,-4.2141 14.03125,-5.21875 l -0.21875,2.46875 c -5.7e-4,0.0312 -5.7e-4,0.0625 0,0.0937 -0.1547,2.35841 -0.28762,4.01599 -0.375,4.71875 -0.32998,2.65242 -0.10725,5.07939 1.3125,7 1.41975,1.92061 3.85795,2.78127 6.34375,2.78125 2.73217,3e-5 5.31796,-1.07662 7.125,-3.03125 1.80704,-1.95463 2.86036,-4.58209 3.4375,-7.78125 0.16762,-0.93204 0.41587,-2.56573 0.71875,-5 0.74222,-5.96724 0.4484,-10.70413 -1.46875,-14.3125 -1.91671,-3.60703 -5.75233,-5.62492 -10.15625,-5.625 z M 404.5,409.15625 c -11.33817,7e-5 -21.75864,4.33978 -30.84375,12.65625 -9.09102,8.32197 -14.5029,18.55988 -15.96875,30.34375 -1.51576,12.18508 -0.32738,21.61412 4.1875,28.15625 4.77965,6.96531 13.34005,10.28125 24.65625,10.28125 2.73623,0 5.84084,-0.71822 9.53125,-2 3.12,-1.08368 6.86836,-2.79683 10.8125,-4.71875 0.86919,1.21072 1.63923,2.38471 2.9375,3.71875 0.0103,0.0105 0.0207,0.0209 0.0312,0.0312 1.09869,1.08572 2.06025,1.9151 3,2.5625 0.93975,0.6474 1.80729,1.25 3.25,1.25 2.32433,0 4.55653,-0.92383 6.375,-2.4375 1.87548,-1.56126 3.13169,-3.76109 3.4375,-6.21875 0.0328,-0.30261 0.0116,-0.61101 -0.0625,-0.90625 l -0.28125,-1.1875 c -0.0176,-0.0738 -0.0384,-0.14676 -0.0625,-0.2187 -0.52557,-1.57925 -0.86152,-2.7711 -1.0625,-3.53125 6e-5,-0.0104 6e-5,-0.0208 0,-0.0312 -1.68255,-6.07127 -2.65033,-10.20438 -2.8125,-11.78125 2.5e-4,-0.0208 2.5e-4,-0.0417 0,-0.0625 -0.3705,-2.9492 -0.21314,-7.34909 0.53125,-12.96875 0.82546,-6.26593 1.60142,-11.3874 2.34375,-15.34375 0.72828,-3.88218 1.44703,-6.60023 2,-8.0625 1.0208,-1.20388 1.78049,-2.61227 1.96875,-4.125 0.31663,-2.54572 -0.59358,-5.10151 -2.34375,-7.09375 -1.75017,-1.99224 -4.23524,-3.57893 -7.4375,-4.96875 -4.98739,-2.19157 -9.71511,-3.34367 -14.1875,-3.34375 z m 215.25,0 c -11.33816,7e-5 -21.75865,4.33978 -30.84375,12.65625 -9.0933,8.32405 -14.47224,18.56457 -15.9375,30.34375 -1.51522,12.18065 -0.36222,21.6089 4.15625,28.15625 4.77966,6.9653 13.34006,10.28125 24.65625,10.28125 2.73623,0 5.86764,-0.71668 9.5625,-2 3.13022,-1.08723 6.86782,-2.79222 10.8125,-4.71875 0.87941,1.20989 1.64948,2.39526 2.9375,3.71875 0.0103,0.0105 0.0207,0.0209 0.0312,0.0312 1.09405,1.08114 2.03816,1.91458 2.96875,2.5625 0.93059,0.64792 1.80729,1.25 3.25,1.25 2.32433,0 4.57373,-0.91215 6.40625,-2.4375 1.88954,-1.57296 3.10397,-3.78946 3.40625,-6.21875 0.0328,-0.30261 0.0116,-0.61101 -0.0625,-0.90625 l -0.28125,-1.1875 c -0.0176,-0.0738 -0.0385,-0.1468 -0.0625,-0.21875 -0.52556,-1.57927 -0.86152,-2.77112 -1.0625,-3.53125 6e-5,-0.0104 6e-5,-0.0208 0,-0.0312 -1.68036,-6.0634 -2.6164,-10.17838 -2.78125,-11.78125 2.5e-4,-0.0208 2.5e-4,-0.0417 0,-0.0625 -0.37248,-2.96502 -0.24327,-7.35827 0.5,-12.96875 0.82546,-6.26593 1.60143,-11.38739 2.34375,-15.34375 0.72563,-3.86801 1.44788,-6.56457 2,-8.03125 1.02698,-1.19169 1.8068,-2.60372 2,-4.15625 0.31753,-2.55291 -0.58616,-5.10439 -2.34375,-7.09375 -1.75759,-1.98936 -4.26799,-3.57958 -7.46875,-4.96875 -4.98739,-2.19157 -9.7151,-3.34367 -14.1875,-3.34375 z m -343,0.28125 c -3.34614,10e-5 -6.33053,2.0032 -8.4375,5.03125 -4.22698,6.0555 -8.70548,13.22518 -13.46875,21.5625 -6e-5,0.0104 -6e-5,0.0208 0,0.0312 l -10.46875,18.9063 c -5.92091,-17.54043 -11.84237,-31.53334 -17.875,-41.65625 -1.37907,-2.33769 -4.05413,-3.71866 -6.84375,-3.71875 -2.49254,10e-5 -4.85776,1.07129 -6.84375,2.8125 -2.01339,1.76539 -3.37072,4.07842 -3.6875,6.625 -0.27084,2.17729 0.33772,4.37249 1.4375,6.75 0.0101,0.021 0.0205,0.0418 0.0312,0.0625 l 2.4063,4.84375 0.0937,0.21875 18.375,46.5 c -6.01483,10.49011 -10.79577,19.21129 -14.03125,25.71875 -3.37292,6.78389 -5.2867,11.15288 -5.6875,14.375 -0.31094,2.49937 0.44907,5.07777 2.21875,6.875 1.73066,1.75752 4.15173,2.68745 6.65625,2.6875 3.93058,-5e-5 7.29841,-2.57786 9.1875,-6.46875 0.0105,-0.0103 0.0209,-0.0207 0.0312,-0.0312 l 6.21875,-13.40625 c 0.005,-0.011 0.0258,-0.0202 0.0312,-0.0312 l 0,-0.0312 c 4.16076,-8.41791 9.97809,-18.95769 17.4375,-31.53125 L 284,423.625 c 0.87565,-1.48757 1.49697,-2.93799 1.6875,-4.46875 0.31272,-2.51463 -0.53172,-5.05581 -2.28125,-6.875 -1.72019,-1.78829 -4.13408,-2.84366 -6.65625,-2.84375 z m 289.96875,0 c -3.34614,10e-5 -6.33053,2.0032 -8.4375,5.03125 -4.22698,6.0555 -8.70548,13.22518 -13.46875,21.5625 -6e-5,0.0104 -6e-5,0.0208 0,0.0312 l -10.4375,18.875 c -5.92337,-17.52876 -11.87854,-31.51035 -17.90625,-41.625 -1.37908,-2.3377 -4.05413,-3.71866 -6.84375,-3.71875 -2.49254,10e-5 -4.85776,1.07129 -6.84375,2.8125 -2.01337,1.76539 -3.37072,4.07842 -3.6875,6.625 -0.27084,2.17729 0.33772,4.37249 1.4375,6.75 0.0101,0.021 0.0205,0.0418 0.0312,0.0625 l 2.40625,4.84375 0.0937,0.21875 18.375,46.5 c -6.01483,10.49011 -10.79578,19.21129 -14.03125,25.71875 -3.37291,6.78389 -5.28669,11.15289 -5.6875,14.375 -0.31436,2.52702 0.49534,5.09303 2.25,6.875 1.71561,1.74224 4.12047,2.68745 6.625,2.6875 3.93058,-5e-5 7.2984,-2.57786 9.1875,-6.46875 0.0105,-0.0103 0.0209,-0.0207 0.0312,-0.0312 l 6.21875,-13.40625 c 0.005,-0.011 0.0258,-0.0202 0.0312,-0.0312 l 0,-0.0312 c 4.16076,-8.41791 9.97808,-18.95769 17.4375,-31.53125 L 574,423.625 c 0.89126,-1.5141 1.47214,-2.98955 1.65625,-4.46875 0.30919,-2.48627 -0.48607,-5.04082 -2.25,-6.875 -1.73461,-1.80328 -4.16534,-2.84366 -6.6875,-2.84375 z M 178.875,409.65625 c -12.27129,7e-5 -22.76175,5.17278 -30.8125,15.0625 -6.85326,8.33664 -10.86775,18.0669 -11.9375,29 -1.06272,11.26329 1.27639,20.7228 7.25,27.71875 5.32728,6.25701 12.56038,9.49999 20.96875,9.5 10.49046,-10e-6 19.72546,-4.58295 27.0625,-13.28125 6.45971,-7.65248 10.43165,-16.93288 11.90625,-27.625 1.38341,-9.96615 0.57921,-18.70868 -2.59375,-26.09375 -4.03132,-9.19431 -11.79612,-14.28117 -21.84375,-14.28125 z m 148.90625,0 c -12.2713,7e-5 -22.79083,5.17011 -30.84375,15.0625 -6.85582,8.33976 -10.83699,18.07197 -11.90625,29 -1.06271,11.26329 1.27637,20.7228 7.25,27.71875 5.32376,6.25288 12.52912,9.49999 20.9375,9.5 10.49045,-10e-6 19.72546,-4.58295 27.0625,-13.28125 6.45971,-7.65248 10.43164,-16.93288 11.90625,-27.625 1.38341,-9.96615 0.57921,-18.70868 -2.59375,-26.09375 -4.02917,-9.18943 -11.76487,-14.28117 -21.8125,-14.28125 z m 76.09375,17 c 0.25685,2e-5 0.98657,0.10944 2,0.46875 0.51383,0.18224 1.30682,0.59539 1.96875,0.90625 -0.54871,1.87067 -1.09925,3.7509 -1.5,5.46875 -0.55831,2.39286 -1.01734,4.65927 -1.28125,6.78125 -0.7528,6.05131 -1.11753,14.95689 -1.1875,26.5 -2.64979,2.02865 -5.00372,3.72426 -6.25,4.34375 -0.004,0.002 -0.0271,-0.002 -0.0312,0 -2.88303,1.40855 -6.30987,2.12501 -10.4375,2.125 -4.76405,10e-6 -7.40166,-1.39622 -9.15625,-4.40625 -1.75799,-3.01578 -2.46992,-8.14301 -1.5625,-15.4375 0.87935,-7.06921 3.97905,-13.21087 9.5625,-18.71875 5.56398,-5.48865 11.40086,-8.0312 17.875,-8.03125 z m 215.25,0 c 0.25685,2e-5 0.98655,0.10944 2,0.46875 0.51383,0.18224 1.30682,0.59539 1.96875,0.90625 -0.54871,1.87068 -1.09925,3.75091 -1.5,5.46875 -0.56326,2.4141 -0.98937,4.68566 -1.25,6.78125 -0.75254,6.04917 -1.14685,14.96666 -1.21875,26.53125 -2.63753,2.02238 -4.98533,3.69931 -6.21875,4.3125 -0.004,0.002 -0.0271,-0.002 -0.0312,0 -2.87752,1.40576 -6.34112,2.12501 -10.46875,2.125 -4.76405,10e-6 -7.40168,-1.39623 -9.15625,-4.40625 -1.75799,-3.01578 -2.46991,-8.14301 -1.5625,-15.4375 0.87851,-7.06234 4.00708,-13.20769 9.59375,-18.71875 5.56721,-5.49183 11.36961,-8.0312 17.84375,-8.03125 z m -442.9375,2.28125 c 0.0104,6e-5 0.0208,6e-5 0.0312,0 4.41187,0.0198 6.61289,1.44481 8.15625,5.15625 1.54336,3.71144 1.86856,10.06337 0.46875,18.78125 -0.97901,6.14315 -3.42699,10.77553 -7.375,14.25 -6e-5,0.0104 -6e-5,0.0208 0,0.0312 -3.51763,3.16548 -7.19054,4.59376 -11.375,4.59375 -3.47098,10e-6 -5.97742,-1.14583 -8.21875,-3.75 -2.62208,-3.08145 -3.71552,-7.46445 -2.9375,-13.71875 0.78592,-6.31811 2.87857,-11.84297 6.28125,-16.71875 0.009,-0.013 0.0221,-0.0183 0.0312,-0.0312 4.25581,-6.01094 8.97989,-8.63423 14.9375,-8.59375 z m 148.90625,0 c 0.0104,6e-5 0.0208,6e-5 0.0312,0 4.41186,0.0198 6.61946,1.44507 8.15625,5.15625 1.53679,3.71118 1.83754,10.06192 0.4375,18.78125 -0.97902,6.14316 -3.42698,10.77553 -7.375,14.25 -6e-5,0.0104 -6e-5,0.0208 0,0.0312 -3.51762,3.16548 -7.19054,4.59376 -11.375,4.59375 -3.47098,10e-6 -5.97744,-1.14583 -8.21875,-3.75 -2.62209,-3.08145 -3.71552,-7.46445 -2.9375,-13.71875 0.78592,-6.31811 2.87856,-11.84297 6.28125,-16.71875 0.009,-0.013 0.0221,-0.0183 0.0312,-0.0312 4.25281,-6.00649 9.01121,-8.63423 14.96875,-8.59375 z"
       id="path3841"
       inkscape:connector-curvature="0"
       sodipodi:nodetypes="cccscccccccsscccccccccccccccccccccccscssccccssccccccccscscccccsscsscccsscccccccccccccsccccsscsscccsscccccccccccccscccccccccccscccccscccccccccccccccccccccscccccssccccccccccccccccsccccccccsccccccccccccscssccccccccccscssccccscccscsccccccscccscsccsc" />
    <path
       style="fill:none;stroke:#ffffff;stroke-width:6;stroke-linecap:round;stroke-linejoin:miter;stroke-miterlimit:4;stroke-opacity:1;stroke-dasharray:none;filter:url(#filter4429)"
       d="m 446.9925,417.48131 c 2.77792,-3.53554 5.3033,-1.51523 5.80838,0"
       id="path3867"
       inkscape:connector-curvature="0" />
    <path
       style="color:#000000;fill:none;stroke:#000000;stroke-width:45;stroke-linecap:round;stroke-linejoin:round;stroke-miterlimit:4;stroke-opacity:0.24019608;stroke-dasharray:none;stroke-dashoffset:0;marker:none;visibility:visible;display:inline;overflow:visible;filter:url(#filter4471);enable-background:accumulate"
       d="m 699.71801,485.54291 c -18.57942,5.81319 -45.46425,11.04831 -78.68589,15.44481 -66.44328,8.79302 -158.23383,14.23161 -259.62286,14.23161 -101.38903,0 -193.17958,-5.43859 -259.62286,-14.23161 -33.221645,-4.3965 -60.106472,-9.63162 -78.685889,-15.44481"
       id="path4460"
       inkscape:connector-curvature="0"
       sodipodi:nodetypes="csssc"
       clip-path="url(#clipPath4479)" />
  </g>
</svg>
