<?xml version="1.0" encoding="UTF-8" standalone="no"?>
<!-- Created with Inkscape (http://www.inkscape.org/) -->

<svg
   xmlns:dc="http://purl.org/dc/elements/1.1/"
   xmlns:cc="http://creativecommons.org/ns#"
   xmlns:rdf="http://www.w3.org/1999/02/22-rdf-syntax-ns#"
   xmlns:svg="http://www.w3.org/2000/svg"
   xmlns="http://www.w3.org/2000/svg"
   xmlns:xlink="http://www.w3.org/1999/xlink"
   xmlns:sodipodi="http://sodipodi.sourceforge.net/DTD/sodipodi-0.dtd"
   xmlns:inkscape="http://www.inkscape.org/namespaces/inkscape"
   width="656.23932"
   height="350.00024"
   id="svg2"
   version="1.1"
   inkscape:version="0.48.5 r10040"
   sodipodi:docname="logo.svg">
  <defs
     id="defs4">
    <linearGradient
       id="linearGradient3833">
      <stop
         style="stop-color:#39ad00;stop-opacity:1;"
         offset="0"
         id="stop3835" />
      <stop
         id="stop3837"
         offset="0.5"
         style="stop-color:#009b4f;stop-opacity:1;" />
      <stop
         id="stop3839"
         offset="1"
         style="stop-color:#009eef;stop-opacity:1;" />
    </linearGradient>
    <linearGradient
       id="linearGradient3777">
      <stop
         id="stop3809"
         offset="0"
         style="stop-color:#59ff07;stop-opacity:1;" />
      <stop
         style="stop-color:#14ff8b;stop-opacity:1;"
         offset="0.5"
         id="stop3817" />
      <stop
         style="stop-color:#7ed3ff;stop-opacity:1;"
         offset="1"
         id="stop3781" />
    </linearGradient>
    <linearGradient
       inkscape:collect="always"
       xlink:href="#linearGradient3777"
       id="linearGradient3815"
       x1="60.740429"
       y1="449.8125"
       x2="642.9953"
       y2="449.8125"
       gradientUnits="userSpaceOnUse" />
    <linearGradient
       inkscape:collect="always"
       xlink:href="#linearGradient3833"
       id="linearGradient3831"
       x1="55.924629"
       y1="449.8125"
       x2="647.81268"
       y2="449.8125"
       gradientUnits="userSpaceOnUse" />
    <linearGradient
       inkscape:collect="always"
       xlink:href="#linearGradient3777"
       id="linearGradient3847"
       gradientUnits="userSpaceOnUse"
       x1="60.740429"
       y1="449.8125"
       x2="642.9953"
       y2="449.8125" />
    <linearGradient
       inkscape:collect="always"
       xlink:href="#linearGradient3833"
       id="linearGradient3850"
       gradientUnits="userSpaceOnUse"
       x1="55.924629"
       y1="449.8125"
       x2="647.81268"
       y2="449.8125" />
    <linearGradient
       inkscape:collect="always"
       xlink:href="#linearGradient3777"
       id="linearGradient3853"
       gradientUnits="userSpaceOnUse"
       x1="60.740429"
       y1="449.8125"
       x2="642.9953"
       y2="449.8125" />
    <filter
       inkscape:collect="always"
       id="filter4405"
       x="-0.3945829"
       width="1.7891659"
       y="-3.2456748"
       height="7.4913497"
       color-interpolation-filters="sRGB">
      <feGaussianBlur
         inkscape:collect="always"
         stdDeviation="5.397558"
         id="feGaussianBlur4407" />
    </filter>
    <filter
       inkscape:collect="always"
       id="filter4429"
       x="-2.2302499"
       width="5.4604998"
       y="-6.5936961"
       height="14.187392"
       color-interpolation-filters="sRGB">
      <feGaussianBlur
         inkscape:collect="always"
         stdDeviation="5.397558"
         id="feGaussianBlur4431" />
    </filter>
    <clipPath
       clipPathUnits="userSpaceOnUse"
       id="clipPath4454">
      <path
         style="font-size:142.21144104px;font-style:normal;font-variant:normal;font-weight:normal;font-stretch:normal;line-height:125%;letter-spacing:0px;word-spacing:0px;fill:#ff0101;fill-opacity:0.32941176;stroke:none;font-family:Comic Sans MS;-inkscape-font-specification:Comic Sans MS"
         d="m 102.3125,372.5625 c -4.043202,1.1e-4 -7.46767,0.16778 -10.3125,0.40625 -2.715813,0.22785 -4.835758,0.55656 -6.625,1.0625 -1.962431,-0.14693 -3.918786,0.22578 -5.5,1.34375 -1.802222,1.27423 -3.063002,3.18331 -3.96875,5.53125 -0.9698,2.47997 -1.666493,5.93416 -2.25,10.625 l -1.1875,9.53125 0,0.0312 c -0.799457,5.68911 -2.479045,15.21811 -5.0625,28.5625 -2.376187,12.38817 -4.015158,22.02525 -4.875,28.9375 L 60,479.03125 c -0.297913,2.39484 0.285632,4.80345 1.78125,6.625 1.520003,1.85128 3.903793,2.87499 6.34375,2.875 2.40873,-10e-6 4.721339,-0.96249 6.5,-2.625 1.756882,-1.6422 2.918417,-3.83584 3.21875,-6.25 2.031593,-16.33196 3.549719,-27.13075 4.75,-34.21875 2.409839,0.30869 4.955734,0.65629 6.15625,0.65625 11.40462,4e-5 21.72593,-3.24193 30.6875,-9.65625 10.05921,-7.16822 16.02375,-17.10073 17.53125,-29.21875 1.21173,-9.74165 -2.36351,-18.48743 -10.21875,-25.3125 -7.09512,-6.13957 -15.37693,-9.34363 -24.4375,-9.34375 z m -3.21875,18.40625 c 5.4321,8e-5 10.1098,1.5018 14.40625,4.625 3.57073,3.08898 6.0504,7.28011 5.65625,11.00005 -0.82599,6.63966 -3.95779,11.66709 -9.8125,15.625 -5.36482,3.63144 -11.579218,5.43222 -18.90625,5.4375 l -0.03125,0 -4.53125,-0.5625 4.4375,-24.96875 c 0.01101,-0.031 0.02143,-0.0623 0.03125,-0.0937 L 91.78125,391.25 c 0.661794,-0.0654 1.196767,-0.14121 2,-0.1875 1.531495,-0.0881 3.30288,-0.0937 5.3125,-0.0937 z m 388.125,17.5 c -9.89246,6e-5 -19.40633,3.60544 -28.4375,10.1875 -0.12924,-1.66723 -0.46382,-3.16347 -1.09375,-4.5 -1.25987,-2.67305 -4.09612,-4.37495 -7.09375,-4.375 -2.53426,5e-5 -4.9279,0.82646 -6.625,2.53125 -1.6971,1.70479 -2.60082,4.07467 -2.9375,6.78125 -0.1818,1.46139 -0.53779,3.74035 -1.03125,6.78125 -0.50094,3.08671 -0.80601,5.40921 -1,6.96875 l -6.09375,48.75 c -0.33659,2.70579 -0.0796,5.1895 1.375,7.125 1.45464,1.9355 3.90983,2.78125 6.4375,2.78125 2.72774,0 5.23734,-0.76267 7.09375,-2.4375 1.85641,-1.67483 2.87658,-4.09316 3.21875,-6.84375 l 4.53125,-37.4375 c 3.27876,-5.59965 6.91281,-9.70132 10.90625,-12.375 6e-5,-0.0104 6e-5,-0.0208 0,-0.0312 3.69465,-2.49377 8.39757,-4.2141 14.03125,-5.21875 l -0.21875,2.46875 c -5.7e-4,0.0312 -5.7e-4,0.0625 0,0.0937 -0.1547,2.35841 -0.28762,4.01599 -0.375,4.71875 -0.32998,2.65242 -0.10725,5.07939 1.3125,7 1.41975,1.92061 3.85795,2.78127 6.34375,2.78125 2.73217,3e-5 5.31796,-1.07662 7.125,-3.03125 1.80704,-1.95463 2.86036,-4.58209 3.4375,-7.78125 0.16762,-0.93204 0.41587,-2.56573 0.71875,-5 0.74222,-5.96724 0.4484,-10.70413 -1.46875,-14.3125 -1.91671,-3.60703 -5.75233,-5.62492 -10.15625,-5.625 z M 404.5,409.15625 c -11.33817,7e-5 -21.75864,4.33978 -30.84375,12.65625 -9.09102,8.32197 -14.5029,18.55988 -15.96875,30.34375 -1.51576,12.18508 -0.32738,21.61412 4.1875,28.15625 4.77965,6.96531 13.34005,10.28125 24.65625,10.28125 2.73623,0 5.84084,-0.71822 9.53125,-2 3.12,-1.08368 6.86836,-2.79683 10.8125,-4.71875 0.86919,1.21072 1.63923,2.38471 2.9375,3.71875 0.0103,0.0105 0.0207,0.0209 0.0312,0.0312 1.09869,1.08572 2.06025,1.9151 3,2.5625 0.93975,0.6474 1.80729,1.25 3.25,1.25 2.32433,0 4.55653,-0.92383 6.375,-2.4375 1.87548,-1.56126 3.13169,-3.76109 3.4375,-6.21875 0.0328,-0.30261 0.0116,-0.61101 -0.0625,-0.90625 l -0.28125,-1.1875 c -0.0176,-0.0738 -0.0384,-0.14676 -0.0625,-0.2187 -0.52557,-1.57925 -0.86152,-2.7711 -1.0625,-3.53125 6e-5,-0.0104 6e-5,-0.0208 0,-0.0312 -1.68255,-6.07127 -2.65033,-10.20438 -2.8125,-11.78125 2.5e-4,-0.0208 2.5e-4,-0.0417 0,-0.0625 -0.3705,-2.9492 -0.21314,-7.34909 0.53125,-12.96875 0.82546,-6.26593 1.60142,-11.3874 2.34375,-15.34375 0.72828,-3.88218 1.44703,-6.60023 2,-8.0625 1.0208,-1.20388 1.78049,-2.61227 1.96875,-4.125 0.31663,-2.54572 -0.59358,-5.10151 -2.34375,-7.09375 -1.75017,-1.99224 -4.23524,-3.57893 -7.4375,-4.96875 -4.98739,-2.19157 -9.71511,-3.34367 -14.1875,-3.34375 z m 215.25,0 c -11.33816,7e-5 -21.75865,4.33978 -30.84375,12.65625 -9.0933,8.32405 -14.47224,18.56457 -15.9375,30.34375 -1.51522,12.18065 -0.36222,21.6089 4.15625,28.15625 4.77966,6.9653 13.34006,10.28125 24.65625,10.28125 2.73623,0 5.86764,-0.71668 9.5625,-2 3.13022,-1.08723 6.86782,-2.79222 10.8125,-4.71875 0.87941,1.20989 1.64948,2.39526 2.9375,3.71875 0.0103,0.0105 0.0207,0.0209 0.0312,0.0312 1.09405,1.08114 2.03816,1.91458 2.96875,2.5625 0.93059,0.64792 1.80729,1.25 3.25,1.25 2.32433,0 4.57373,-0.91215 6.40625,-2.4375 1.88954,-1.57296 3.10397,-3.78946 3.40625,-6.21875 0.0328,-0.30261 0.0116,-0.61101 -0.0625,-0.90625 l -0.28125,-1.1875 c -0.0176,-0.0738 -0.0385,-0.1468 -0.0625,-0.21875 -0.52556,-1.57927 -0.86152,-2.77112 -1.0625,-3.53125 6e-5,-0.0104 6e-5,-0.0208 0,-0.0312 -1.68036,-6.0634 -2.6164,-10.17838 -2.78125,-11.78125 2.5e-4,-0.0208 2.5e-4,-0.0417 0,-0.0625 -0.37248,-2.96502 -0.24327,-7.35827 0.5,-12.96875 0.82546,-6.26593 1.60143,-11.38739 2.34375,-15.34375 0.72563,-3.86801 1.44788,-6.56457 2,-8.03125 1.02698,-1.19169 1.8068,-2.60372 2,-4.15625 0.31753,-2.55291 -0.58616,-5.10439 -2.34375,-7.09375 -1.75759,-1.98936 -4.26799,-3.57958 -7.46875,-4.96875 -4.98739,-2.19157 -9.7151,-3.34367 -14.1875,-3.34375 z m -343,0.28125 c -3.34614,10e-5 -6.33053,2.0032 -8.4375,5.03125 -4.22698,6.0555 -8.70548,13.22518 -13.46875,21.5625 -6e-5,0.0104 -6e-5,0.0208 0,0.0312 l -10.46875,18.9063 c -5.92091,-17.54043 -11.84237,-31.53334 -17.875,-41.65625 -1.37907,-2.33769 -4.05413,-3.71866 -6.84375,-3.71875 -2.49254,10e-5 -4.85776,1.07129 -6.84375,2.8125 -2.01339,1.76539 -3.37072,4.07842 -3.6875,6.625 -0.27084,2.17729 0.33772,4.37249 1.4375,6.75 0.0101,0.021 0.0205,0.0418 0.0312,0.0625 l 2.4063,4.84375 0.0937,0.21875 18.375,46.5 c -6.01483,10.49011 -10.79577,19.21129 -14.03125,25.71875 -3.37292,6.78389 -5.2867,11.15288 -5.6875,14.375 -0.31094,2.49937 0.44907,5.07777 2.21875,6.875 1.73066,1.75752 4.15173,2.68745 6.65625,2.6875 3.93058,-5e-5 7.29841,-2.57786 9.1875,-6.46875 0.0105,-0.0103 0.0209,-0.0207 0.0312,-0.0312 l 6.21875,-13.40625 c 0.005,-0.011 0.0258,-0.0202 0.0312,-0.0312 l 0,-0.0312 c 4.16076,-8.41791 9.97809,-18.95769 17.4375,-31.53125 L 284,423.625 c 0.87565,-1.48757 1.49697,-2.93799 1.6875,-4.46875 0.31272,-2.51463 -0.53172,-5.05581 -2.28125,-6.875 -1.72019,-1.78829 -4.13408,-2.84366 -6.65625,-2.84375 z m 289.96875,0 c -3.34614,10e-5 -6.33053,2.0032 -8.4375,5.03125 -4.22698,6.0555 -8.70548,13.22518 -13.46875,21.5625 -6e-5,0.0104 -6e-5,0.0208 0,0.0312 l -10.4375,18.875 c -5.92337,-17.52876 -11.87854,-31.51035 -17.90625,-41.625 -1.37908,-2.3377 -4.05413,-3.71866 -6.84375,-3.71875 -2.49254,10e-5 -4.85776,1.07129 -6.84375,2.8125 -2.01337,1.76539 -3.37072,4.07842 -3.6875,6.625 -0.27084,2.17729 0.33772,4.37249 1.4375,6.75 0.0101,0.021 0.0205,0.0418 0.0312,0.0625 l 2.40625,4.84375 0.0937,0.21875 18.375,46.5 c -6.01483,10.49011 -10.79578,19.21129 -14.03125,25.71875 -3.37291,6.78389 -5.28669,11.15289 -5.6875,14.375 -0.31436,2.52702 0.49534,5.09303 2.25,6.875 1.71561,1.74224 4.12047,2.68745 6.625,2.6875 3.93058,-5e-5 7.2984,-2.57786 9.1875,-6.46875 0.0105,-0.0103 0.0209,-0.0207 0.0312,-0.0312 l 6.21875,-13.40625 c 0.005,-0.011 0.0258,-0.0202 0.0312,-0.0312 l 0,-0.0312 c 4.16076,-8.41791 9.97808,-18.95769 17.4375,-31.53125 L 574,423.625 c 0.89126,-1.5141 1.47214,-2.98955 1.65625,-4.46875 0.30919,-2.48627 -0.48607,-5.04082 -2.25,-6.875 -1.73461,-1.80328 -4.16534,-2.84366 -6.6875,-2.84375 z M 178.875,409.65625 c -12.27129,7e-5 -22.76175,5.17278 -30.8125,15.0625 -6.85326,8.33664 -10.86775,18.0669 -11.9375,29 -1.06272,11.26329 1.27639,20.7228 7.25,27.71875 5.32728,6.25701 12.56038,9.49999 20.96875,9.5 10.49046,-10e-6 19.72546,-4.58295 27.0625,-13.28125 6.45971,-7.65248 10.43165,-16.93288 11.90625,-27.625 1.38341,-9.96615 0.57921,-18.70868 -2.59375,-26.09375 -4.03132,-9.19431 -11.79612,-14.28117 -21.84375,-14.28125 z m 148.90625,0 c -12.2713,7e-5 -22.79083,5.17011 -30.84375,15.0625 -6.85582,8.33976 -10.83699,18.07197 -11.90625,29 -1.06271,11.26329 1.27637,20.7228 7.25,27.71875 5.32376,6.25288 12.52912,9.49999 20.9375,9.5 10.49045,-10e-6 19.72546,-4.58295 27.0625,-13.28125 6.45971,-7.65248 10.43164,-16.93288 11.90625,-27.625 1.38341,-9.96615 0.57921,-18.70868 -2.59375,-26.09375 -4.02917,-9.18943 -11.76487,-14.28117 -21.8125,-14.28125 z m 76.09375,17 c 0.25685,2e-5 0.98657,0.10944 2,0.46875 0.51383,0.18224 1.30682,0.59539 1.96875,0.90625 -0.54871,1.87067 -1.09925,3.7509 -1.5,5.46875 -0.55831,2.39286 -1.01734,4.65927 -1.28125,6.78125 -0.7528,6.05131 -1.11753,14.95689 -1.1875,26.5 -2.64979,2.02865 -5.00372,3.72426 -6.25,4.34375 -0.004,0.002 -0.0271,-0.002 -0.0312,0 -2.88303,1.40855 -6.30987,2.12501 -10.4375,2.125 -4.76405,10e-6 -7.40166,-1.39622 -9.15625,-4.40625 -1.75799,-3.01578 -2.46992,-8.14301 -1.5625,-15.4375 0.87935,-7.06921 3.97905,-13.21087 9.5625,-18.71875 5.56398,-5.48865 11.40086,-8.0312 17.875,-8.03125 z m 215.25,0 c 0.25685,2e-5 0.98655,0.10944 2,0.46875 0.51383,0.18224 1.30682,0.59539 1.96875,0.90625 -0.54871,1.87068 -1.09925,3.75091 -1.5,5.46875 -0.56326,2.4141 -0.98937,4.68566 -1.25,6.78125 -0.75254,6.04917 -1.14685,14.96666 -1.21875,26.53125 -2.63753,2.02238 -4.98533,3.69931 -6.21875,4.3125 -0.004,0.002 -0.0271,-0.002 -0.0312,0 -2.87752,1.40576 -6.34112,2.12501 -10.46875,2.125 -4.76405,10e-6 -7.40168,-1.39623 -9.15625,-4.40625 -1.75799,-3.01578 -2.46991,-8.14301 -1.5625,-15.4375 0.87851,-7.06234 4.00708,-13.20769 9.59375,-18.71875 5.56721,-5.49183 11.36961,-8.0312 17.84375,-8.03125 z m -442.9375,2.28125 c 0.0104,6e-5 0.0208,6e-5 0.0312,0 4.41187,0.0198 6.61289,1.44481 8.15625,5.15625 1.54336,3.71144 1.86856,10.06337 0.46875,18.78125 -0.97901,6.14315 -3.42699,10.77553 -7.375,14.25 -6e-5,0.0104 -6e-5,0.0208 0,0.0312 -3.51763,3.16548 -7.19054,4.59376 -11.375,4.59375 -3.47098,10e-6 -5.97742,-1.14583 -8.21875,-3.75 -2.62208,-3.08145 -3.71552,-7.46445 -2.9375,-13.71875 0.78592,-6.31811 2.87857,-11.84297 6.28125,-16.71875 0.009,-0.013 0.0221,-0.0183 0.0312,-0.0312 4.25581,-6.01094 8.97989,-8.63423 14.9375,-8.59375 z m 148.90625,0 c 0.0104,6e-5 0.0208,6e-5 0.0312,0 4.41186,0.0198 6.61946,1.44507 8.15625,5.15625 1.53679,3.71118 1.83754,10.06192 0.4375,18.78125 -0.97902,6.14316 -3.42698,10.77553 -7.375,14.25 -6e-5,0.0104 -6e-5,0.0208 0,0.0312 -3.51762,3.16548 -7.19054,4.59376 -11.375,4.59375 -3.47098,10e-6 -5.97744,-1.14583 -8.21875,-3.75 -2.62209,-3.08145 -3.71552,-7.46445 -2.9375,-13.71875 0.78592,-6.31811 2.87856,-11.84297 6.28125,-16.71875 0.009,-0.013 0.0221,-0.0183 0.0312,-0.0312 4.25281,-6.00649 9.01121,-8.63423 14.96875,-8.59375 z"
         id="path4456"
         inkscape:connector-curvature="0"
         sodipodi:nodetypes="cccscccccccsscccccccccccccccccccccccscssccccssccccccccscscccccsscsscccsscccccccccccccsccccsscsscccsscccccccccccccscccccccccccscccccscccccccccccccccccccccscccccssccccccccccccccccsccccccccsccccccccccccscssccccccccccscssccccscccscsccccccscccscsccsc" />
    </clipPath>
    <linearGradient
       inkscape:collect="always"
       xlink:href="#linearGradient3777"
       id="linearGradient4483"
       gradientUnits="userSpaceOnUse"
       x1="60.740429"
       y1="449.8125"
       x2="642.9953"
       y2="449.8125" />
    <linearGradient
       inkscape:collect="always"
       xlink:href="#linearGradient3777"
       id="linearGradient3048"
       gradientUnits="userSpaceOnUse"
       x1="60.740429"
       y1="449.8125"
       x2="353.42682"
       y2="449.8125" />
    <linearGradient
       inkscape:collect="always"
       xlink:href="#linearGradient3833"
       id="linearGradient3050"
       gradientUnits="userSpaceOnUse"
       x1="55.924629"
       y1="449.8125"
       x2="357.41748"
       y2="449.8125" />
    <filter
       inkscape:collect="always"
       id="filter3783"
       x="-0.10575762"
       width="1.2115152"
       y="-1.059985"
       height="3.1199701"
       color-interpolation-filters="sRGB">
      <feGaussianBlur
         inkscape:collect="always"
         stdDeviation="13.1069"
         id="feGaussianBlur3785" />
    </filter>
    <filter
       color-interpolation-filters="sRGB"
       inkscape:collect="always"
       id="filter3783-1"
       x="-0.10575762"
       width="1.2115152"
       y="-1.059985"
       height="3.1199701">
      <feGaussianBlur
         inkscape:collect="always"
         stdDeviation="13.1069"
         id="feGaussianBlur3785-7" />
    </filter>
    <clipPath
       clipPathUnits="userSpaceOnUse"
       id="clipPath3827">
      <path
         style="font-size:142.21144104px;font-style:normal;font-variant:normal;font-weight:normal;font-stretch:normal;text-indent:0;text-align:start;text-decoration:none;line-height:125%;letter-spacing:0px;word-spacing:0px;text-transform:none;direction:ltr;block-progression:tb;writing-mode:lr-tb;text-anchor:start;baseline-shift:baseline;color:#000000;fill:#ff0101;fill-opacity:0.50196078;stroke:none;stroke-width:8.0001049;marker:none;visibility:visible;display:inline;overflow:visible;enable-background:accumulate;font-family:Comic Sans MS;-inkscape-font-specification:Comic Sans MS"
         d="m 105.58224,413.56885 c -4.15373,7e-5 -7.700673,0.0979 -10.656247,0.25084 -2.644019,0.13697 -4.795292,0.36988 -6.8125,0.69463 -2.433699,-0.0287 -5.028859,0.25161 -7.28125,1.2349 -2.614002,1.14117 -4.282456,2.79196 -5.375,4.5344 -0.0033,0.006 0.0033,0.014 0,0.0193 -1.185856,1.87903 -1.899736,4.15973 -2.5,7.13927 l -1.1875,5.86577 0,0.0193 c -0.778755,3.41862 -2.456596,9.28942 -5.03125,17.50084 -2.384382,7.67546 -4.025766,13.65139 -4.906251,18.02182 l -2.53125,12.61914 c -0.417464,2.07208 0.387043,4.25579 2.65625,5.96225 2.362624,1.77674 5.878712,2.68204 9.437501,2.68205 3.474279,-1e-5 6.73911,-0.84578 9.21875,-2.27685 2.412558,-1.3924 4.049083,-3.28119 4.46875,-5.3641 1.806827,-8.9685 3.099553,-14.43214 4.21875,-18.73574 0.89961,0.0595 1.912934,0.17367 2.71875,0.17365 12.153417,3e-5 23.380007,-2.17807 32.999997,-6.42533 0.0123,-0.006 0.019,-0.0139 0.0312,-0.0193 10.85107,-4.78326 17.52408,-11.61877 19.15625,-19.71981 1.36689,-6.7852 -2.88375,-13.15364 -11.5625,-17.80957 -7.73909,-4.13494 -17.05895,-6.36737 -27.0625,-6.36745 z m 174.4375,22.76847 c -4.94244,9e-5 -9.07271,1.81976 -11.71875,4.16778 -4.31617,3.81786 -8.84725,8.30942 -13.65625,13.50672 -0.0106,0.0128 -0.021,0.0257 -0.0312,0.0386 -0.0558,0.0566 -0.10797,0.11452 -0.15625,0.17366 l -6,6.69547 c -4.98076,-8.49199 -10.02897,-15.5615 -15.25,-20.974 -0.004,-0.004 0.004,-0.0148 0,-0.0193 l -0.0312,0 c -2.18408,-2.26523 -6.15483,-3.49237 -10.25,-3.49245 -3.63848,9e-5 -6.91048,0.96911 -9.46875,2.35402 -2.64559,1.43231 -4.57831,3.38602 -5.03125,5.63423 -0.4021,1.99591 0.52364,3.8398 1.78125,5.51846 0.0103,0.006 0.0207,0.0129 0.0312,0.0193 0.0181,0.0232 0.0134,0.0554 0.0312,0.0772 0.01,0.0117 0.0218,0.0272 0.0312,0.0386 l 2.28125,2.81711 0.0625,0.0772 0.0312,0.0579 17.65625,27.573 c -5.48261,5.93332 -10.13688,11.1266 -13.21875,14.95387 -3.40919,4.23374 -5.52384,6.99313 -6.0625,9.66695 -0.45113,2.23902 0.63382,4.59097 3.34375,6.29027 2.5443,1.59536 6.00538,2.39257 9.5,2.39262 5.34258,-5e-5 9.73813,-2.09458 12.25,-4.88172 0.23773,-0.16877 0.43808,-0.35759 0.59375,-0.55956 l 6.1875,-8.2198 0.0312,-0.0386 0,-0.0193 c 0.0105,-0.006 0.0209,-0.0128 0.0312,-0.0193 4.09058,-5.10668 9.84178,-11.56576 17.25,-19.27602 l 30.46875,-32.06881 c 1.03265,-1.08318 1.93482,-2.29621 2.21875,-3.70469 0.46228,-2.29523 -0.78116,-4.60565 -3.375,-6.27098 -2.47122,-1.58627 -5.89332,-2.50831 -9.53125,-2.50839 z m -97.875,0.13507 c -13.39537,4e-5 -25.21257,3.61315 -33.90625,10.20721 -7.33623,5.51022 -11.6707,12.03212 -12.8125,19.23743 -1.13396,7.4207 1.39249,14.03437 8.1875,18.94799 6.04359,4.38287 14.56313,6.73406 24,6.73407 11.65545,-10e-6 22.16784,-3.2441 30.125,-9.0688 6.9603,-5.09118 11.24438,-11.31416 12.8125,-18.31125 10e-4,-0.006 -0.001,-0.013 0,-0.0193 1.4502,-6.46982 0.64961,-12.35839 -2.875,-17.42367 -0.0104,-2e-5 -0.0208,-2e-5 -0.0312,0 -4.57196,-6.43837 -14.1023,-10.30364 -25.5,-10.30369 z m 148.90625,0 c -13.3948,4e-5 -25.23863,3.60921 -33.9375,10.20721 -7.34285,5.51519 -11.6407,12.04002 -12.78125,19.23743 -1.13395,7.4207 1.39246,14.03436 8.1875,18.94799 6.03554,4.37703 14.53056,6.73406 23.96875,6.73407 11.65544,-10e-6 22.16784,-3.2441 30.125,-9.0688 6.9603,-5.09118 11.24437,-11.31417 12.8125,-18.31125 10e-4,-0.006 -0.001,-0.013 0,-0.0193 1.4502,-6.46982 0.64961,-12.35839 -2.875,-17.42367 -0.0104,-2e-5 -0.0208,-2e-5 -0.0312,0 -4.56704,-6.43146 -14.06976,-10.30364 -25.46875,-10.30369 z m -95.28125,61.53274 c -117.71142,10.603 -58.85571,5.3015 0,0 z m 7,2.37332 c -0.25474,0.28432 -0.49885,0.51973 -0.65625,0.59816 0.15541,-0.0833 0.40631,-0.32847 0.65625,-0.59816 z"
         id="path3829"
         inkscape:connector-curvature="0"
         sodipodi:nodetypes="cccsccccccccsscccccccccccccccccccccsccccccccscccccccccccccccccccscccccccccccscccccccccccc" />
    </clipPath>
  </defs>
  <sodipodi:namedview
     id="base"
     pagecolor="#ffffff"
     bordercolor="#666666"
     borderopacity="1.0"
     inkscape:pageopacity="0.0"
     inkscape:pageshadow="2"
     inkscape:zoom="0.69999999"
     inkscape:cx="411.90114"
     inkscape:cy="296.14161"
     inkscape:document-units="px"
     inkscape:current-layer="g3037"
     showgrid="false"
     inkscape:snap-bbox="true"
     inkscape:snap-bbox-midpoints="false"
     inkscape:bbox-nodes="false"
     inkscape:snap-bbox-edge-midpoints="false"
     inkscape:object-nodes="false"
     inkscape:object-paths="false"
     inkscape:window-width="1366"
     inkscape:window-height="749"
     inkscape:window-x="-4"
     inkscape:window-y="-4"
     inkscape:window-maximized="1"
     fit-margin-top="0"
     fit-margin-left="0"
     fit-margin-right="0"
     fit-margin-bottom="0" />
  <metadata
     id="metadata7">
    <rdf:RDF>
      <cc:Work
         rdf:about="">
        <dc:format>image/svg+xml</dc:format>
        <dc:type
           rdf:resource="http://purl.org/dc/dcmitype/StillImage" />
        <dc:title />
      </cc:Work>
    </rdf:RDF>
  </metadata>
  <g
     inkscape:label="Layer 1"
     inkscape:groupmode="layer"
     id="layer1"
     transform="translate(-55.942435,-181.08025)">
    <g
       id="g3037"
       transform="matrix(2.1625764,0,0,2.1536262,-65.016658,-612.64761)">
      <path
         style="font-size:142.21144104px;font-style:normal;font-variant:normal;font-weight:normal;font-stretch:normal;line-height:125%;letter-spacing:0px;word-spacing:0px;fill:url(#linearGradient3048);fill-opacity:1;stroke:none;font-family:Comic Sans MS;-inkscape-font-specification:Comic Sans MS"
         d="m 102.3125,372.5625 c -4.043202,1.1e-4 -7.46767,0.16778 -10.3125,0.40625 -2.715813,0.22785 -4.835758,0.55656 -6.625,1.0625 -1.962431,-0.14693 -3.918786,0.22578 -5.5,1.34375 -1.802222,1.27423 -3.063002,3.18331 -3.96875,5.53125 -0.9698,2.47997 -1.666493,5.93416 -2.25,10.625 l -1.1875,9.53125 0,0.0312 c -0.799457,5.68911 -2.479045,15.21811 -5.0625,28.5625 -2.376187,12.38817 -4.015158,22.02525 -4.875,28.9375 L 60,479.03125 c -0.297913,2.39484 0.285632,4.80345 1.78125,6.625 1.520003,1.85128 3.903793,2.87499 6.34375,2.875 2.40873,-10e-6 4.721339,-0.96249 6.5,-2.625 1.756882,-1.6422 2.918417,-3.83584 3.21875,-6.25 2.031593,-16.33196 3.549719,-27.13075 4.75,-34.21875 2.409839,0.30869 4.955734,0.65629 6.15625,0.65625 11.40462,4e-5 21.72593,-3.24193 30.6875,-9.65625 10.05921,-7.16822 16.02375,-17.10073 17.53125,-29.21875 1.21173,-9.74165 -2.36351,-18.48743 -10.21875,-25.3125 -7.09512,-6.13957 -15.37693,-9.34363 -24.4375,-9.34375 z m -3.21875,18.40625 c 5.4321,8e-5 10.1098,1.5018 14.40625,4.625 3.57073,3.08898 6.0504,7.28011 5.65625,11.00005 -0.82599,6.63966 -3.95779,11.66709 -9.8125,15.625 -5.36482,3.63144 -11.579218,5.43222 -18.90625,5.4375 l -0.03125,0 -4.53125,-0.5625 4.4375,-24.96875 c 0.01101,-0.031 0.02143,-0.0623 0.03125,-0.0937 L 91.78125,391.25 c 0.661794,-0.0654 1.196767,-0.14121 2,-0.1875 1.531495,-0.0881 3.30288,-0.0937 5.3125,-0.0937 z M 276.75,409.4375 c -3.34614,10e-5 -6.33053,2.0032 -8.4375,5.03125 -4.22698,6.0555 -8.70548,13.22518 -13.46875,21.5625 -6e-5,0.0104 -6e-5,0.0208 0,0.0312 l -10.46875,18.9063 c -5.92091,-17.54043 -11.84237,-31.53334 -17.875,-41.65625 -1.37907,-2.33769 -4.05413,-3.71866 -6.84375,-3.71875 -2.49254,10e-5 -4.85776,1.07129 -6.84375,2.8125 -2.01339,1.76539 -3.37072,4.07842 -3.6875,6.625 -0.27084,2.17729 0.33772,4.37249 1.4375,6.75 0.0101,0.021 0.0205,0.0418 0.0312,0.0625 l 2.4063,4.84375 0.0937,0.21875 18.375,46.5 c -6.01483,10.49011 -10.79577,19.21129 -14.03125,25.71875 -3.37292,6.78389 -5.2867,11.15288 -5.6875,14.375 -0.31094,2.49937 0.44907,5.07777 2.21875,6.875 1.73066,1.75752 4.15173,2.68745 6.65625,2.6875 3.93058,-5e-5 7.29841,-2.57786 9.1875,-6.46875 0.0105,-0.0103 0.0209,-0.0207 0.0312,-0.0312 l 6.21875,-13.40625 c 0.005,-0.011 0.0258,-0.0202 0.0312,-0.0312 l 0,-0.0312 c 4.16076,-8.41791 9.97809,-18.95769 17.4375,-31.53125 L 284,423.625 c 0.87565,-1.48757 1.49697,-2.93799 1.6875,-4.46875 0.31272,-2.51463 -0.53172,-5.05581 -2.28125,-6.875 -1.72019,-1.78829 -4.13408,-2.84366 -6.65625,-2.84375 z m -97.875,0.21875 c -12.27129,7e-5 -22.76175,5.17278 -30.8125,15.0625 -6.85326,8.33664 -10.86775,18.0669 -11.9375,29 -1.06272,11.26329 1.27639,20.7228 7.25,27.71875 5.32728,6.25701 12.56038,9.49999 20.96875,9.5 10.49046,-10e-6 19.72546,-4.58295 27.0625,-13.28125 6.45971,-7.65248 10.43165,-16.93288 11.90625,-27.625 1.38341,-9.96615 0.57921,-18.70868 -2.59375,-26.09375 -4.03132,-9.19431 -11.79612,-14.28117 -21.84375,-14.28125 z m 148.90625,0 c -12.2713,7e-5 -22.79083,5.17011 -30.84375,15.0625 -6.85582,8.33976 -10.83699,18.07197 -11.90625,29 -1.06271,11.26329 1.27637,20.7228 7.25,27.71875 5.32376,6.25288 12.52912,9.49999 20.9375,9.5 10.49045,-10e-6 19.72546,-4.58295 27.0625,-13.28125 6.45971,-7.65248 10.43164,-16.93288 11.90625,-27.625 1.38341,-9.96615 0.57921,-18.70868 -2.59375,-26.09375 -4.02917,-9.18943 -11.76487,-14.28117 -21.8125,-14.28125 z M 176.1875,428.9375 c 0.0104,6e-5 0.0208,6e-5 0.0312,0 4.41187,0.0198 6.61289,1.44481 8.15625,5.15625 1.54336,3.71144 1.86856,10.06337 0.46875,18.78125 -0.97901,6.14315 -3.42699,10.77553 -7.375,14.25 -6e-5,0.0104 -6e-5,0.0208 0,0.0312 -3.51763,3.16548 -7.19054,4.59376 -11.375,4.59375 -3.47098,10e-6 -5.97742,-1.14583 -8.21875,-3.75 -2.62208,-3.08145 -3.71552,-7.46445 -2.9375,-13.71875 0.78592,-6.31811 2.87857,-11.84297 6.28125,-16.71875 0.009,-0.013 0.0221,-0.0183 0.0312,-0.0312 4.25581,-6.01094 8.97989,-8.63423 14.9375,-8.59375 z m 148.90625,0 c 0.0104,6e-5 0.0208,6e-5 0.0312,0 4.41186,0.0198 6.61946,1.44507 8.15625,5.15625 1.53679,3.71118 1.83754,10.06192 0.4375,18.78125 -0.97902,6.14316 -3.42698,10.77553 -7.375,14.25 -6e-5,0.0104 -6e-5,0.0208 0,0.0312 -3.51762,3.16548 -7.19054,4.59376 -11.375,4.59375 -3.47098,10e-6 -5.97744,-1.14583 -8.21875,-3.75 -2.62209,-3.08145 -3.71552,-7.46445 -2.9375,-13.71875 0.78592,-6.31811 2.87856,-11.84297 6.28125,-16.71875 0.009,-0.013 0.0221,-0.0183 0.0312,-0.0312 4.25281,-6.00649 9.01121,-8.63423 14.96875,-8.59375 z"
         id="path3007"
         inkscape:connector-curvature="0"
         sodipodi:nodetypes="cccscccccccsscccccccccccccccccccccccccccccscccccscccccccccccccccccsccccccccsccccccscccscsccccccscccscsccsc" />
      <path
         inkscape:connector-curvature="0"
         clip-path="url(#clipPath4454)"
         id="path3855"
         d="m 97.15625,378.40625 c -3.701262,0.0789 -7.829949,0.49048 -12.3125,1.4375 l 32.84375,2.53125 c -2.08344,-1.32583 -9.42746,-4.2055 -20.53125,-3.96875 z M 277.75,414.9062 c -1.56258,-0.15389 -3.11358,0.79727 -4.25,2.3125 l 5.8125,-1.75 c -0.50508,-0.31567 -1.04164,-0.5112 -1.5625,-0.5625 z m 49.0625,1.00005 c -6.70184,0.20115 -14.56872,2.82927 -22.5,8.15625 l 39.125,0 c -2.95154,-5.50059 -9.02958,-8.38422 -16.625,-8.15625 z m -107.34375,0.125 c -1.65728,0.0473 -3.61548,2.07472 -4.5625,3.96875 l 6.0625,-3.28125 c -0.44194,-0.50507 -0.94757,-0.70328 -1.5,-0.6875 z m -42.5,0.1875 c -5.01025,0.12904 -10.7983,1.63745 -16.875,5.0625 l 31.34375,0 c -2.84106,-3.12516 -8.02699,-5.22841 -14.46875,-5.0625 z"
         style="fill:none;stroke:#ffffff;stroke-width:6;stroke-linecap:round;stroke-linejoin:round;stroke-miterlimit:4;stroke-opacity:1;stroke-dasharray:none;filter:url(#filter4405)"
         sodipodi:nodetypes="sccssccssccsccccsccs" />
      <path
         sodipodi:nodetypes="cccscccccccsscccccccccccccccccccccccccccccscccccscccccccccccccccccsccccccccsccccccscccscsccccccscccscsccsc"
         inkscape:connector-curvature="0"
         id="path3841"
         d="m 102.3125,372.5625 c -4.043202,1.1e-4 -7.46767,0.16778 -10.3125,0.40625 -2.715813,0.22785 -4.835758,0.55656 -6.625,1.0625 -1.962431,-0.14693 -3.918786,0.22578 -5.5,1.34375 -1.802222,1.27423 -3.063002,3.18331 -3.96875,5.53125 -0.9698,2.47997 -1.666493,5.93416 -2.25,10.625 l -1.1875,9.53125 0,0.0312 c -0.799457,5.68911 -2.479045,15.21811 -5.0625,28.5625 -2.376187,12.38817 -4.015158,22.02525 -4.875,28.9375 L 60,479.03125 c -0.297913,2.39484 0.285632,4.80345 1.78125,6.625 1.520003,1.85128 3.903793,2.87499 6.34375,2.875 2.40873,-10e-6 4.721339,-0.96249 6.5,-2.625 1.756882,-1.6422 2.918417,-3.83584 3.21875,-6.25 2.031593,-16.33196 3.549719,-27.13075 4.75,-34.21875 2.409839,0.30869 4.955734,0.65629 6.15625,0.65625 11.40462,4e-5 21.72593,-3.24193 30.6875,-9.65625 10.05921,-7.16822 16.02375,-17.10073 17.53125,-29.21875 1.21173,-9.74165 -2.36351,-18.48743 -10.21875,-25.3125 -7.09512,-6.13957 -15.37693,-9.34363 -24.4375,-9.34375 z m -3.21875,18.40625 c 5.4321,8e-5 10.1098,1.5018 14.40625,4.625 3.57073,3.08898 6.0504,7.28011 5.65625,11.00005 -0.82599,6.63966 -3.95779,11.66709 -9.8125,15.625 -5.36482,3.63144 -11.579218,5.43222 -18.90625,5.4375 l -0.03125,0 -4.53125,-0.5625 4.4375,-24.96875 c 0.01101,-0.031 0.02143,-0.0623 0.03125,-0.0937 L 91.78125,391.25 c 0.661794,-0.0654 1.196767,-0.14121 2,-0.1875 1.531495,-0.0881 3.30288,-0.0937 5.3125,-0.0937 z M 276.75,409.4375 c -3.34614,10e-5 -6.33053,2.0032 -8.4375,5.03125 -4.22698,6.0555 -8.70548,13.22518 -13.46875,21.5625 -6e-5,0.0104 -6e-5,0.0208 0,0.0312 l -10.46875,18.9063 c -5.92091,-17.54043 -11.84237,-31.53334 -17.875,-41.65625 -1.37907,-2.33769 -4.05413,-3.71866 -6.84375,-3.71875 -2.49254,10e-5 -4.85776,1.07129 -6.84375,2.8125 -2.01339,1.76539 -3.37072,4.07842 -3.6875,6.625 -0.27084,2.17729 0.33772,4.37249 1.4375,6.75 0.0101,0.021 0.0205,0.0418 0.0312,0.0625 l 2.4063,4.84375 0.0937,0.21875 18.375,46.5 c -6.01483,10.49011 -10.79577,19.21129 -14.03125,25.71875 -3.37292,6.78389 -5.2867,11.15288 -5.6875,14.375 -0.31094,2.49937 0.44907,5.07777 2.21875,6.875 1.73066,1.75752 4.15173,2.68745 6.65625,2.6875 3.93058,-5e-5 7.29841,-2.57786 9.1875,-6.46875 0.0105,-0.0103 0.0209,-0.0207 0.0312,-0.0312 l 6.21875,-13.40625 c 0.005,-0.011 0.0258,-0.0202 0.0312,-0.0312 l 0,-0.0312 c 4.16076,-8.41791 9.97809,-18.95769 17.4375,-31.53125 L 284,423.625 c 0.87565,-1.48757 1.49697,-2.93799 1.6875,-4.46875 0.31272,-2.51463 -0.53172,-5.05581 -2.28125,-6.875 -1.72019,-1.78829 -4.13408,-2.84366 -6.65625,-2.84375 z m -97.875,0.21875 c -12.27129,7e-5 -22.76175,5.17278 -30.8125,15.0625 -6.85326,8.33664 -10.86775,18.0669 -11.9375,29 -1.06272,11.26329 1.27639,20.7228 7.25,27.71875 5.32728,6.25701 12.56038,9.49999 20.96875,9.5 10.49046,-10e-6 19.72546,-4.58295 27.0625,-13.28125 6.45971,-7.65248 10.43165,-16.93288 11.90625,-27.625 1.38341,-9.96615 0.57921,-18.70868 -2.59375,-26.09375 -4.03132,-9.19431 -11.79612,-14.28117 -21.84375,-14.28125 z m 148.90625,0 c -12.2713,7e-5 -22.79083,5.17011 -30.84375,15.0625 -6.85582,8.33976 -10.83699,18.07197 -11.90625,29 -1.06271,11.26329 1.27637,20.7228 7.25,27.71875 5.32376,6.25288 12.52912,9.49999 20.9375,9.5 10.49045,-10e-6 19.72546,-4.58295 27.0625,-13.28125 6.45971,-7.65248 10.43164,-16.93288 11.90625,-27.625 1.38341,-9.96615 0.57921,-18.70868 -2.59375,-26.09375 -4.02917,-9.18943 -11.76487,-14.28117 -21.8125,-14.28125 z M 176.1875,428.9375 c 0.0104,6e-5 0.0208,6e-5 0.0312,0 4.41187,0.0198 6.61289,1.44481 8.15625,5.15625 1.54336,3.71144 1.86856,10.06337 0.46875,18.78125 -0.97901,6.14315 -3.42699,10.77553 -7.375,14.25 -6e-5,0.0104 -6e-5,0.0208 0,0.0312 -3.51763,3.16548 -7.19054,4.59376 -11.375,4.59375 -3.47098,10e-6 -5.97742,-1.14583 -8.21875,-3.75 -2.62208,-3.08145 -3.71552,-7.46445 -2.9375,-13.71875 0.78592,-6.31811 2.87857,-11.84297 6.28125,-16.71875 0.009,-0.013 0.0221,-0.0183 0.0312,-0.0312 4.25581,-6.01094 8.97989,-8.63423 14.9375,-8.59375 z m 148.90625,0 c 0.0104,6e-5 0.0208,6e-5 0.0312,0 4.41186,0.0198 6.61946,1.44507 8.15625,5.15625 1.53679,3.71118 1.83754,10.06192 0.4375,18.78125 -0.97902,6.14316 -3.42698,10.77553 -7.375,14.25 -6e-5,0.0104 -6e-5,0.0208 0,0.0312 -3.51762,3.16548 -7.19054,4.59376 -11.375,4.59375 -3.47098,10e-6 -5.97744,-1.14583 -8.21875,-3.75 -2.62209,-3.08145 -3.71552,-7.46445 -2.9375,-13.71875 0.78592,-6.31811 2.87856,-11.84297 6.28125,-16.71875 0.009,-0.013 0.0221,-0.0183 0.0312,-0.0312 4.25281,-6.00649 9.01121,-8.63423 14.96875,-8.59375 z"
         style="font-size:142.21144104px;font-style:normal;font-variant:normal;font-weight:normal;font-stretch:normal;line-height:125%;letter-spacing:0px;word-spacing:0px;fill:none;stroke:url(#linearGradient3050);stroke-width:8.0001049;stroke-linecap:round;stroke-linejoin:round;stroke-miterlimit:100;stroke-opacity:1;stroke-dasharray:none;font-family:Comic Sans MS;-inkscape-font-specification:Comic Sans MS" />
      <path
         clip-path="url(#clipPath3827)"
         sodipodi:nodetypes="csssc"
         inkscape:connector-curvature="0"
         id="path4460"
         d="m 356.37921,496.53266 c -8.16749,5.81319 -19.98602,11.04831 -34.59021,15.44481 -29.20838,8.79302 -69.55938,14.23161 -114.12986,14.23161 -44.57048,0 -84.92148,-5.43859 -114.129861,-14.23161 -14.60419,-4.3965 -26.42272,-9.63162 -34.59021,-15.44481"
         style="color:#000000;fill:none;stroke:#000000;stroke-width:35.36009216;stroke-linecap:round;stroke-linejoin:round;stroke-miterlimit:4;stroke-opacity:0.39037434;stroke-dasharray:none;stroke-dashoffset:0;marker:none;visibility:visible;display:inline;overflow:visible;filter:url(#filter3783-1);enable-background:accumulate"
         transform="matrix(1,0,0,1.6195645,-3.2697425,-301.23893)" />
    </g>
  </g>
</svg>
