<?xml version="1.0" encoding="UTF-8" standalone="no"?>
<!-- Created with Inkscape (http://www.inkscape.org/) -->

<svg
   xmlns:dc="http://purl.org/dc/elements/1.1/"
   xmlns:cc="http://creativecommons.org/ns#"
   xmlns:rdf="http://www.w3.org/1999/02/22-rdf-syntax-ns#"
   xmlns:svg="http://www.w3.org/2000/svg"
   xmlns="http://www.w3.org/2000/svg"
   xmlns:xlink="http://www.w3.org/1999/xlink"
   xmlns:sodipodi="http://sodipodi.sourceforge.net/DTD/sodipodi-0.dtd"
   xmlns:inkscape="http://www.inkscape.org/namespaces/inkscape"
   width="1920.187"
   height="700.09149"
   id="svg2"
   version="1.1"
   inkscape:version="0.48.5 r10040"
   sodipodi:docname="logo.svg"
   inkscape:export-filename="D:\Essentials\GitHub\Repos\LudicrousSwole\res\textures\raster\title\logo.png"
   inkscape:export-xdpi="89.989998"
   inkscape:export-ydpi="89.989998">
  <defs
     id="defs4">
    <linearGradient
       inkscape:collect="always"
       id="linearGradient3851">
      <stop
         style="stop-color:#004fbe;stop-opacity:1"
         offset="0"
         id="stop3853" />
      <stop
         style="stop-color:#8fd1ff;stop-opacity:1"
         offset="1"
         id="stop3855" />
    </linearGradient>
    <linearGradient
       inkscape:collect="always"
       id="linearGradient3769">
      <stop
         style="stop-color:#000000;stop-opacity:1;"
         offset="0"
         id="stop3771" />
      <stop
         style="stop-color:#000000;stop-opacity:0;"
         offset="1"
         id="stop3773" />
    </linearGradient>
    <linearGradient
       inkscape:collect="always"
       xlink:href="#linearGradient3769"
       id="linearGradient3775"
       x1="121.02324"
       y1="333.29401"
       x2="120.81755"
       y2="384.62769"
       gradientUnits="userSpaceOnUse" />
    <linearGradient
       inkscape:collect="always"
       xlink:href="#linearGradient3851"
       id="linearGradient3857"
       x1="41.232922"
       y1="332.38504"
       x2="41.222733"
       y2="384.62424"
       gradientUnits="userSpaceOnUse" />
    <clipPath
       clipPathUnits="userSpaceOnUse"
       id="clipPath3893">
      <rect
         style="color:#000000;fill:#ff0101;fill-opacity:0.30392157;fill-rule:nonzero;stroke:none;stroke-width:1.5;marker:none;visibility:visible;display:inline;overflow:visible;enable-background:accumulate"
         id="rect3895"
         width="226.27417"
         height="197.28279"
         x="1108.3353"
         y="30.335529" />
    </clipPath>
    <linearGradient
       inkscape:collect="always"
       xlink:href="#linearGradient3769"
       id="linearGradient3925"
       gradientUnits="userSpaceOnUse"
       x1="121.02324"
       y1="333.29401"
       x2="120.81755"
       y2="384.62769" />
    <linearGradient
       inkscape:collect="always"
       xlink:href="#linearGradient3851"
       id="linearGradient3952"
       gradientUnits="userSpaceOnUse"
       x1="41.232922"
       y1="332.38504"
       x2="41.222733"
       y2="384.62424" />
    <linearGradient
       inkscape:collect="always"
       xlink:href="#linearGradient3769"
       id="linearGradient3954"
       gradientUnits="userSpaceOnUse"
       x1="121.02324"
       y1="333.29401"
       x2="120.81755"
       y2="384.62769" />
  </defs>
  <sodipodi:namedview
     id="base"
     pagecolor="#ffffff"
     bordercolor="#666666"
     borderopacity="1.0"
     inkscape:pageopacity="0.0"
     inkscape:pageshadow="2"
     inkscape:zoom="0.35355339"
     inkscape:cx="1091.6846"
     inkscape:cy="303.59514"
     inkscape:document-units="px"
     inkscape:current-layer="layer1"
     showgrid="false"
     inkscape:window-width="1366"
     inkscape:window-height="749"
     inkscape:window-x="-4"
     inkscape:window-y="-4"
     inkscape:window-maximized="1"
     inkscape:object-nodes="false"
     inkscape:object-paths="false"
     inkscape:snap-nodes="false"
     fit-margin-top="0"
     fit-margin-left="0"
     fit-margin-right="0"
     fit-margin-bottom="0" />
  <metadata
     id="metadata7">
    <rdf:RDF>
      <cc:Work
         rdf:about="">
        <dc:format>image/svg+xml</dc:format>
        <dc:type
           rdf:resource="http://purl.org/dc/dcmitype/StillImage" />
        <dc:title></dc:title>
      </cc:Work>
    </rdf:RDF>
  </metadata>
  <g
     inkscape:label="Layer 1"
     inkscape:groupmode="layer"
     id="layer1"
     transform="translate(-40.601445,227.99368)">
    <g
       id="g3927"
       transform="matrix(5.2153664,0,0,5.1420943,-171.64445,-1955.0946)">
      <g
         id="text2985"
         style="font-size:74.18263245px;font-style:normal;font-weight:normal;line-height:125%;letter-spacing:0px;word-spacing:0px;fill:url(#linearGradient3954);fill-opacity:1;stroke:#004971;stroke-width:1.00709951;stroke-opacity:1;font-family:Sans"
         transform="matrix(1,0,-0.20694147,1,0,4)">
        <path
           inkscape:connector-curvature="0"
           id="path3778"
           transform="matrix(1,0,0.20694147,1,0,0)"
           d="m 198.71875,332.875 c -5.86799,5e-5 -10.80919,2.21307 -14.84375,6.65625 -4.0346,4.44327 -6.93222,10.82523 -8.65625,19.15625 -1.59912,7.72738 -1.39784,13.91899 0.59375,18.53125 1.99157,4.61227 5.98714,6.90625 12,6.90625 9.24865,0 15.80575,-5.48141 19.625,-16.46875 l -7.34375,-1.0625 c -1.25089,3.47732 -2.68661,6.15269 -4.3125,8 -1.62594,1.84733 -3.68323,2.75 -6.21875,2.75 -6.32679,0 -8.25862,-6.03395 -5.75,-18.15625 2.69348,-13.01573 7.20445,-19.53121 13.53125,-19.53125 4.73297,4e-5 6.75932,3.73291 6.03125,11.21875 l 7.8125,-1.125 c 0.75904,-11.25292 -3.38915,-16.87495 -12.46875,-16.875 z m 77.9375,0 c -5.79554,5e-5 -10.65413,2.16548 -14.59375,6.5 -3.93966,4.33461 -6.76098,10.69028 -8.5,19.09375 -1.75404,8.47596 -1.5498,14.8771 0.625,19.1875 2.17478,4.31042 6.13486,6.46875 11.90625,6.46875 5.74719,0 10.58697,-2.14626 14.5,-6.46875 3.91296,-4.32248 6.75093,-10.73569 8.5,-19.1875 1.74898,-8.45176 1.5256,-14.81454 -0.625,-19.125 -2.15069,-4.31037 -6.08946,-6.4687 -11.8125,-6.46875 z m 80.03125,0 c -4.53985,5e-5 -8.45454,1.35088 -11.75,4.03125 -3.29551,2.68048 -5.37296,5.97017 -6.1875,9.90625 -0.53471,2.58387 -0.37429,4.9091 0.4375,6.9375 0.81177,2.02846 1.96414,3.55541 3.5,4.59375 1.53583,1.03839 4.13078,2.31535 7.78125,3.8125 3.44807,1.42475 5.53681,2.74432 6.21875,4 0.68189,1.25571 0.8673,2.62073 0.5625,4.09375 -0.4148,2.00429 -1.44708,3.69815 -3.09375,5.0625 -1.64673,1.36437 -3.80539,2.03125 -6.4375,2.03125 -5.38502,0 -8.07322,-3.03969 -8.09375,-9.125 l -7.75,2.0625 c 0.26438,9.22453 4.9658,13.84375 14.09375,13.84375 5.28839,0 9.71133,-1.4531 13.25,-4.375 3.5386,-2.9219 5.73418,-6.47153 6.59375,-10.625 0.52966,-2.55967 0.43931,-4.80606 -0.28125,-6.75 -0.72065,-1.94389 -1.8663,-3.49712 -3.4375,-4.65625 -1.57126,-1.15908 -3.90831,-2.37638 -7,-3.65625 -3.62632,-1.49715 -6.00008,-2.76914 -7.09375,-3.84375 -1.09371,-1.07456 -1.43731,-2.53262 -1.0625,-4.34375 0.33979,-1.64203 1.2227,-3.10719 2.65625,-4.375 1.43352,-1.26773 3.2258,-1.87495 5.375,-1.875 2.31817,5e-5 4.01086,0.60017 5.09375,1.84375 1.08283,1.24366 1.78113,3.17331 2.0625,5.78125 l 7.46875,-2.40625 c -0.57258,-7.96879 -4.86501,-11.9687 -12.90625,-11.96875 z m -304.75,0.90625 -10.21875,49.4375 25.65625,0 1.4375,-6.90625 -17.5,0 8.8125,-42.53125 -8.1875,0 z m 29.9375,0 -6.375,30.6875 c -1.274294,6.15775 -1.54683,10.44104 -0.8125,12.84375 0.734316,2.40273 2.194645,4.14417 4.375,5.21875 2.180335,1.07458 4.89625,1.59375 8.15625,1.59375 4.20172,0 7.739599,-0.848 10.59375,-2.5625 2.85408,-1.71451 4.89705,-3.89201 6.125,-6.5 1.22788,-2.60797 2.34426,-6.32664 3.34375,-11.15625 l 6.25,-30.125 -7.375,0 -6.3125,30.53125 c -0.879544,4.25006 -1.719736,7.09445 -2.5,8.53125 -0.780326,1.43681 -1.834762,2.55895 -3.15625,3.34375 -1.321542,0.78482 -3.01704,1.15625 -5.09375,1.15625 -2.19748,0 -3.842991,-0.4524 -4.9375,-1.40625 -1.094551,-0.95384 -1.631355,-2.245 -1.65625,-3.875 -0.02492,-1.62997 0.290381,-4.16472 1,-7.59375 l 6.375,-30.6875 -8,0 z m 40.8125,0 -10.25,49.4375 11.75,0 c 5.65061,0 10.24678,-1.15054 13.78125,-3.46875 3.53442,-2.3182 6.42029,-5.37708 8.6875,-9.15625 2.26712,-3.77914 3.90676,-8.07663 4.90625,-12.90625 0.94943,-4.58809 0.99953,-8.76413 0.125,-12.53125 -0.87461,-3.76705 -2.73356,-6.59226 -5.5625,-8.5 -2.82901,-1.90764 -6.92753,-2.87495 -12.3125,-2.875 l -11.125,0 z m 41.6875,0 -10.21875,49.4375 8.15625,0 10.25,-49.4375 -8.1875,0 z m 56.78125,0 -10.21875,49.4375 8.1875,0 4.28125,-20.65625 7.65625,0 3.46875,20.65625 8.875,0 L 238.625,360.875 c 5.5716,-2.53551 8.99065,-6.85218 10.25,-12.9375 0.94443,-4.56393 0.39867,-8.061 -1.65625,-10.5 -2.05501,-2.43889 -5.77128,-3.6562 -11.15625,-3.65625 l -14.90625,0 z m 80.5,0 -6.34375,30.6875 c -1.2743,6.15775 -1.54683,10.44104 -0.8125,12.84375 0.73432,2.40273 2.19464,4.14417 4.375,5.21875 2.18033,1.07458 4.89625,1.59375 8.15625,1.59375 4.20172,0 7.7396,-0.848 10.59375,-2.5625 2.85408,-1.71451 4.89705,-3.89201 6.125,-6.5 1.22788,-2.60797 2.31301,-6.32664 3.3125,-11.15625 l 6.25,-30.125 -7.34375,0 -6.34375,30.53125 c -0.87954,4.25006 -1.68849,7.09445 -2.46875,8.53125 -0.78032,1.43681 -1.83477,2.55895 -3.15625,3.34375 -1.32154,0.78482 -3.01704,1.15625 -5.09375,1.15625 -2.19748,0 -3.84299,-0.4524 -4.9375,-1.40625 -1.09454,-0.95384 -1.66261,-2.245 -1.6875,-3.875 -0.0249,-1.62997 0.32163,-4.16472 1.03125,-7.59375 l 6.34375,-30.6875 -8,0 z m -26.4375,5.78125 c 3.40483,5e-5 5.42647,1.6939 6.09375,5.0625 0.66722,3.36868 0.40179,7.97582 -0.8125,13.84375 -1.23435,5.96457 -2.87398,10.61717 -4.9375,13.9375 -2.06358,3.32036 -4.75425,5 -8.0625,5 -3.52563,0 -5.60024,-1.72723 -6.21875,-5.15625 -0.61855,-3.42901 -0.3456,-8.03401 0.84375,-13.78125 1.20931,-5.84378 2.85433,-10.43175 4.90625,-13.8125 2.05187,-3.38068 4.78261,-5.0937 8.1875,-5.09375 z m -47.1875,0.5625 6.34375,0 c 5.38497,4e-5 7.53812,2.58237 6.46875,7.75 -0.51475,2.48727 -1.58289,4.48581 -3.21875,6.03125 -1.63592,1.5455 -3.85511,2.34377 -6.65625,2.34375 l -6.25,0 3.3125,-16.125 z m -98.53125,0.21875 3.40625,0 c 9.05546,5e-5 12.35232,6.06525 9.84375,18.1875 -1.1394,5.50576 -3.13749,9.89131 -5.96875,13.1875 -2.83132,3.29621 -6.61787,4.9375 -11.375,4.9375 l -3.40625,0 7.5,-36.3125 z"
           style="font-variant:normal;font-stretch:normal;fill:url(#linearGradient3952);fill-opacity:1;stroke:#004971;stroke-width:2.01419902;stroke-linecap:round;stroke-linejoin:round;stroke-miterlimit:4;stroke-dasharray:none;font-family:Franklin Gothic Medium Cond;-inkscape-font-specification:Franklin Gothic Medium Cond" />
      </g>
      <g
         transform="translate(75.5,4.5)"
         id="text2989"
         style="font-size:97.69478607px;font-style:normal;font-weight:normal;line-height:125%;letter-spacing:0px;word-spacing:0px;fill:#ffbd52;fill-opacity:1;stroke:#af6c00;stroke-width:3.02129865;stroke-linecap:round;stroke-linejoin:round;stroke-miterlimit:4;stroke-opacity:1;stroke-dasharray:none;font-family:Sans">
        <path
           inkscape:connector-curvature="0"
           id="path3860"
           style="font-variant:normal;font-weight:bold;font-stretch:normal;fill:#ffc864;fill-opacity:1;stroke:#af6c00;stroke-width:2.01419902;stroke-linecap:round;stroke-linejoin:round;stroke-miterlimit:4;stroke-opacity:1;stroke-dasharray:none;font-family:Franklin Gothic Medium Cond;-inkscape-font-specification:Franklin Gothic Medium Cond Bold"
           d="m 94.992057,414.90595 -10.786735,3.49422 c -1.226387,-3.68498 -2.619697,-6.25097 -4.179935,-7.698 -1.5603,-1.44692 -3.687036,-2.17041 -6.380213,-2.17047 -2.444778,6e-5 -4.331013,0.71858 -5.658713,2.15556 -1.327739,1.43709 -1.991598,3.09774 -1.991581,4.98194 -1.7e-5,2.06715 0.770179,3.72929 2.310591,4.9864 1.540374,1.2572 4.781161,2.82592 9.722373,4.70615 4.426363,1.68752 7.861936,3.31338 10.306728,4.87759 2.444713,1.56428 4.430329,3.66865 5.956854,6.31313 1.526434,2.64453 2.289674,5.69302 2.289721,9.14547 -4.7e-5,5.61301 -1.990632,10.40214 -5.97176,14.36741 -3.981212,3.96527 -9.542527,5.9479 -16.683961,5.94791 -12.358944,-10e-6 -20.005255,-6.48754 -22.938955,-19.46264 l 11.299537,-2.97842 c 1.687462,7.859 5.723291,11.78849 12.107499,11.78848 3.084735,10e-6 5.411225,-0.78459 6.979477,-2.35382 1.568186,-1.5692 2.352296,-3.52252 2.352331,-5.85996 -3.5e-5,-1.68944 -0.551595,-3.27058 -1.654682,-4.74342 -1.103153,-1.47279 -3.959339,-3.08573 -8.568567,-4.83882 -5.233385,-1.97963 -9.01977,-3.66363 -11.359166,-5.052 -2.339422,-1.38831 -4.346902,-3.46237 -6.022444,-6.2222 -1.675557,-2.75975 -2.513332,-5.89469 -2.513327,-9.40485 -5e-6,-5.32474 1.869833,-9.81623 5.609519,-13.47447 3.739666,-3.65813 8.689296,-5.48722 14.848904,-5.48729 10.919869,7e-5 17.895363,5.66077 20.926505,16.9821 z" />
        <path
           inkscape:connector-curvature="0"
           id="path3862"
           style="font-variant:normal;font-weight:bold;font-stretch:normal;fill:#ffc864;fill-opacity:1;stroke:#af6c00;stroke-width:2.01419902;stroke-linecap:round;stroke-linejoin:round;stroke-miterlimit:4;stroke-opacity:1;stroke-dasharray:none;font-family:Franklin Gothic Medium Cond;-inkscape-font-specification:Franklin Gothic Medium Cond Bold"
           d="m 99.157084,399.09555 12.635206,0 7.84111,47.79793 9.07242,-47.79793 10.89705,0 9.00981,47.84564 8.24062,-47.84564 10.86425,0 -13.61013,65.88912 -11.27271,0 -9.23044,-46.86476 -9.05751,46.86476 -11.45756,0 z" />
        <path
           inkscape:connector-curvature="0"
           id="path3864"
           style="font-variant:normal;font-weight:bold;font-stretch:normal;fill:#ffc864;fill-opacity:1;stroke:#af6c00;stroke-width:2.01419902;stroke-linecap:round;stroke-linejoin:round;stroke-miterlimit:4;stroke-opacity:1;stroke-dasharray:none;font-family:Franklin Gothic Medium Cond;-inkscape-font-specification:Franklin Gothic Medium Cond Bold"
           d="m 219.43007,431.9447 c -5e-5,11.09285 -2.0284,19.54414 -6.08505,25.3539 -4.05675,5.80977 -9.98676,8.71465 -17.79006,8.71466 -7.8451,-10e-6 -13.82431,-2.88998 -17.93765,-8.66994 -4.11335,-5.77994 -6.17003,-14.24614 -6.17002,-25.39862 -1e-5,-11.03514 2.04325,-19.46407 6.12977,-25.28681 4.08651,-5.82263 10.06323,-8.73397 17.93019,-8.73404 7.76157,7e-5 13.6891,2.89949 17.78261,8.69826 4.09343,5.79889 6.14016,14.23975 6.14021,25.32259 z m -13.18378,0 c -4e-5,-7.43559 -0.83086,-13.20411 -2.49246,-17.30558 -1.66167,-4.10137 -4.44134,-6.15208 -8.339,-6.15214 -3.90964,6e-5 -6.68434,2.04928 -8.32409,6.14767 -1.63979,4.09849 -2.45968,9.8685 -2.45966,17.31005 -2e-5,7.33231 0.80496,13.07549 2.41494,17.22956 1.60994,4.15411 4.44625,6.23115 8.50894,6.23114 3.78039,1e-5 6.50738,-2.0184 8.18098,-6.05524 1.67353,-4.0368 2.51031,-9.83862 2.51035,-17.40546 z" />
        <path
           inkscape:connector-curvature="0"
           id="path3868"
           style="font-variant:normal;font-weight:bold;font-stretch:normal;fill:#ffc864;fill-opacity:1;stroke:#af6c00;stroke-width:2.01419902;stroke-linecap:round;stroke-linejoin:round;stroke-miterlimit:4;stroke-opacity:1;stroke-dasharray:none;font-family:Franklin Gothic Medium Cond;-inkscape-font-specification:Franklin Gothic Medium Cond Bold"
           d="m 293.26643,399.09555 38.67483,0 0,10.37232 -26.00683,0 0,16.33215 20.39283,0 0,10.42002 -20.39283,0 0,18.06436 26.4272,0 0,10.56014 -39.0952,0 z" />
        <g
           style="stroke-width:7.7171545"
           transform="matrix(-0.38934516,0,0,0.39367521,454.51315,264.409)"
           id="g3916">
          <path
             sodipodi:nodetypes="cccscccccccscccscssc"
             style="fill:#ffc864;fill-opacity:1;stroke:#af6c00;stroke-width:5.14476967;stroke-linecap:butt;stroke-linejoin:miter;stroke-miterlimit:4;stroke-opacity:1;stroke-dasharray:none"
             d="m 497.53226,334.50857 c -0.1498,0.0174 -0.2352,0.0477 -0.3125,0.125 -1.2375,1.23744 -1.9062,2.21875 -1.9062,2.21875 0,0 -2.70281,-0.45529 -5.5313,1.3125 -2.82841,1.76775 -13.4491,8.65993 -14.1563,10.78125 -0.7071,2.12132 -0.8685,4.79381 2.8438,6.03125 l -1.4062,2.09375 c 0,0 -1.5957,-0.70527 -2.6563,1.0625 -1.0607,1.76777 -1.7758,7.62776 1.4063,9.21875 3.182,1.59099 6.9062,0.875 6.9062,0.875 0,0 18.7194,11.64705 31.0938,6.34375 0,0 4.06124,1.484 5.5,3.375 4.75457,6.24905 9.8804,42.41794 -4.9688,79.1875 -22.981,-19.79899 -38.1686,-19.44851 -69.2812,-7.78125 l 0,51.625 c 0,0 24.85451,12.01393 58.16739,12.375 38.01733,0.41206 68.03961,-14.84499 67.33261,-21.5625 -0.7072,-6.71752 -10.213,-102.5501 -26.5,-125.5 -7.14801,-10.07221 -32.7099,-25.3027 -33.5938,-25.65625 -0.8287,-0.33146 -10.6911,-6.38589 -12.9375,-6.125 z"
             id="path3897"
             inkscape:connector-curvature="0" />
          <path
             style="fill:none;stroke:#af6c00;stroke-width:5.14476967;stroke-linecap:round;stroke-linejoin:round;stroke-miterlimit:4;stroke-opacity:1;stroke-dasharray:none"
             d="m 454.95506,480.75444 c 10.9602,8.64151 47.3762,7.52972 61.5183,-1.97429"
             id="path3899"
             inkscape:connector-curvature="0" />
          <path
             style="fill:none;stroke:#af6c00;stroke-width:5.14476967;stroke-linecap:round;stroke-linejoin:round;stroke-miterlimit:4;stroke-opacity:1;stroke-dasharray:none"
             d="m 495.30436,336.84333 c 0,0 -6.1229,1.70316 -12.7721,17.05895 0.062,4.09347 1.9375,9.03097 1.9375,9.03097 0,0 5.3643,2.20099 8.4972,2.92688"
             id="path3905"
             inkscape:connector-curvature="0"
             sodipodi:nodetypes="cccc" />
          <path
             style="fill:none;stroke:#af6c00;stroke-width:5.14476967;stroke-linecap:round;stroke-linejoin:round;stroke-miterlimit:4;stroke-opacity:1;stroke-dasharray:none"
             d="m 505.70516,337.98313 c -3.1729,0.26262 -8.1104,7.57512 -11.4854,14.38762 -3.375,6.8125 -2.8125,6.5 -2.8125,6.5 0.062,3.8125 2,8.0625 2,8.0625 4.8128,2.45041 8.255,1.86311 8.2907,1.8686"
             id="path3907"
             inkscape:connector-curvature="0"
             sodipodi:nodetypes="csccc" />
          <path
             style="fill:none;stroke:#af6c00;stroke-width:5.14476967;stroke-linecap:round;stroke-linejoin:round;stroke-miterlimit:4;stroke-opacity:1;stroke-dasharray:none"
             d="m 510.68636,340.74977 c -2.3416,0.49598 -4.7166,6.49598 -5.6541,10.99598 -0.9375,4.5 -5.1875,11.875 -5.1875,11.875 1.1875,3.1875 1.6906,5.19379 2.3781,6.19379 4.7488,1.8538 8.0191,2.51671 9.8753,-1.1514 1.8562,-3.66812 0.6187,-4.72878 -1.37,-5.12653"
             id="path3909"
             inkscape:connector-curvature="0"
             sodipodi:nodetypes="cscc" />
          <path
             style="fill:none;stroke:#af6c00;stroke-width:5.14476967;stroke-linecap:round;stroke-linejoin:round;stroke-miterlimit:4;stroke-opacity:1;stroke-dasharray:none"
             d="m 477.05216,357.08427 c 5.0707,0.90645 5.8144,10.93175 1.9386,11.18599"
             id="path3911"
             inkscape:connector-curvature="0"
             sodipodi:nodetypes="cc" />
          <path
             style="fill:none;stroke:#af6c00;stroke-width:5.14476967;stroke-linecap:round;stroke-linejoin:round;stroke-miterlimit:4;stroke-opacity:1;stroke-dasharray:none"
             d="m 478.46636,354.96295 c 4.2771,1.35666 4.2928,1.46057 4.2928,1.46057"
             id="path3913"
             inkscape:connector-curvature="0" />
        </g>
      </g>
      <flowRoot
         style="font-size:40px;font-style:normal;font-weight:normal;line-height:125%;letter-spacing:0px;word-spacing:0px;fill:#000000;fill-opacity:1;stroke:none;font-family:Sans"
         id="flowRoot2993"
         xml:space="preserve"><flowRegion
           id="flowRegion2995"><rect
             y="305.35437"
             x="12.121831"
             height="80.812202"
             width="397.49503"
             id="rect2997" /></flowRegion><flowPara
           id="flowPara2999"></flowPara></flowRoot>    </g>
  </g>
</svg>
